# This file uses centimeters as units for non-parametric coordinates.

mtllib Flooring_01_broken_04.mtl
g default
v -0.193680 -0.002764 0.955415
v -0.151527 0.096743 0.874071
v 0.016869 -0.002810 0.378320
v 0.498826 -0.002741 0.173272
v 0.418420 0.096358 0.824826
v 0.499982 -0.002796 0.683790
v 0.282810 0.075555 0.273689
v -0.000657 0.096497 0.463435
v 0.229721 -0.002722 1.008045
v -0.499696 -0.002745 0.889471
v 0.500006 0.077094 0.395643
v -0.451490 0.095271 0.639314
v -0.499698 -0.002914 0.587474
v -0.266514 0.067047 0.500125
v 0.294339 -0.002608 0.211877
v -0.228950 0.096787 0.515957
v 0.476146 0.043955 0.854326
v 0.246278 0.056593 1.000518
v 0.081762 0.096858 0.979625
v 0.098002 0.082838 0.992324
v -0.059253 0.074826 0.952620
v 0.476514 0.096793 0.378361
v -0.499928 0.065547 0.821795
v 0.466989 -0.002791 0.871966
v -0.411224 0.096820 0.910890
v 0.230286 0.096919 0.967185
v -0.393266 0.065689 0.935764
v 0.454825 0.096781 0.271942
v -0.200019 0.031699 0.937763
v 0.270769 0.096817 0.319278
v -0.457936 0.096823 0.845726
v 0.483070 0.071729 0.226368
v -0.230910 0.003820 0.437604
v 0.452442 0.096816 0.533050
v -0.094060 -0.002811 0.973474
v 0.137179 0.096801 0.402127
v -0.275746 -0.002764 0.942298
v -0.018160 0.096828 0.945451
v -0.461946 -0.002511 0.940527
v 0.499962 0.051814 0.669052
v -0.263777 0.096801 0.888177
v -0.119913 0.096827 0.493674
v 0.027858 0.033332 1.000179
v 0.436169 0.096861 0.637368
v -0.499948 0.061005 0.639351
vt 0.879396 0.397199
vt 0.057191 0.592750
vt 0.086663 0.726294
vt 0.927234 0.700182
vt 0.695639 0.254172
vt 0.282304 0.075955
vt 0.117769 0.557871
vt 0.182529 0.625248
vt 0.644041 0.515469
vt 0.158007 0.144879
vt 0.332697 0.171499
vt 0.195061 0.197790
vt 0.022461 0.338268
vt 0.606548 0.880064
vt 0.069536 0.334789
vt 0.977179 0.984098
vt 0.636645 0.101572
vt 0.508244 0.111064
vt 0.497085 0.495051
vt 0.619721 0.261541
vt 0.069123 0.493614
vt 0.374882 0.839626
vt 0.176803 0.711076
vt 0.459036 0.669037
vt 0.140428 0.813337
vt 0.111945 0.667978
vt 0.300174 0.114708
vt 0.480198 0.700169
vt 0.243289 0.888203
vt 0.381801 0.883834
vt 0.550589 0.681040
vt 0.475267 0.587095
vt 0.109625 0.346140
vt 0.110412 0.454189
vt 0.097078 0.442273
vt 0.132232 0.526829
vt 0.522878 0.130641
vt 0.532400 0.384504
vt 0.717485 0.359611
vt 0.170082 0.827391
vt 0.685413 0.373496
vt 0.223006 0.851786
vt 0.583005 0.275614
vt 0.601387 0.132334
vt 0.409179 0.155468
vt 0.661288 0.473104
vt 0.144919 0.919397
vt 0.190516 0.936698
vt 0.081377 0.664413
vt 0.621959 0.566631
vt 0.703329 0.921174
vt 0.118854 0.142116
vt 0.446073 0.896361
vt 0.981934 0.869660
vt 0.671042 0.036415
vt 0.926607 0.559911
vt 0.597263 0.487183
vt 0.563124 0.735918
vt 0.423558 0.931534
vt 0.091536 0.868174
vt 0.135605 0.113368
vt 0.705146 0.087660
vn -0.072981 -0.973852 0.215141
vn -0.099218 -0.989203 -0.107858
vn -0.019901 -0.995612 0.091443
vn -0.051529 -0.992398 -0.111760
vn -0.064930 -0.985085 -0.159348
vn 0.161209 -0.986877 0.009219
vn -0.312772 0.573065 0.757476
vn -0.015242 0.997055 0.075166
vn 0.718560 0.504027 0.479196
vn 0.039828 0.999185 0.006539
vn 0.072010 0.996200 0.048999
vn 0.018441 -0.997207 0.072380
vn 0.068721 -0.995282 0.068495
vn 0.366420 0.307855 0.878044
vn 0.102146 -0.982425 -0.156230
vn 0.396242 0.658846 -0.639465
vn 0.984296 0.176491 0.003656
vn -0.049771 0.990216 -0.130369
vn -0.326544 0.633048 -0.701868
vn -0.158160 0.001997 0.987411
vn -0.154257 0.969625 -0.189824
vn 0.017281 0.989518 0.143370
vn -0.025880 0.996782 -0.075869
vn -0.010009 0.382838 0.923761
vn 0.111070 0.593820 0.796895
vn 0.931109 0.359282 0.062876
vn -0.388242 0.586973 -0.710444
vn -0.933728 0.343921 0.099353
vn -0.678062 0.548309 -0.489479
vn -0.302473 -0.448882 -0.840842
vn -0.022576 0.995063 -0.096641
vn 0.023102 0.998531 0.049008
vn -0.004370 0.999800 0.019540
vn -0.046642 0.373152 0.926597
vn -0.009071 0.999663 0.024322
vn 0.067612 0.997707 -0.003148
vn -0.009176 0.999774 -0.019156
vn -0.190839 -0.980569 0.045438
vn -0.000968 -0.969164 0.246415
vn -0.107181 0.983696 0.144414
vn -0.490348 -0.400529 0.774039
vn -0.086473 0.996098 0.017653
vn -0.023188 0.998370 -0.052151
vn 0.031661 0.993506 -0.109287
vn 0.092207 0.995660 0.012640
s 1
g Flooring_01_broken_09
usemtl initialShadingGroup
f 1/9/1 13/1/2 35/50/3
f 3/4/4 15/54/5 6/51/6
f 21/7/7 2/8/8 1/49/1
f 17/10/9 44/11/10 5/12/11
f 9/58/12 3/4/4 24/14/13
f 18/15/14 9/13/12 17/10/9
f 4/55/15 32/17/16 11/18/17
f 15/5/5 3/57/4 8/19/18
f 15/5/5 8/19/18 7/20/19
f 13/1/2 9/58/12 35/50/3
f 43/21/20 35/2/3 9/13/12
f 12/22/21 41/23/22 2/8/8 16/24/23
f 41/23/22 27/25/24 29/26/25 2/8/8
f 6/6/6 4/55/15 40/27/26
f 17/10/9 9/13/12 24/52/13
f 14/28/27 12/22/21 16/24/23
f 23/29/28 12/22/21 45/30/29
f 13/1/2 3/4/4 9/58/12
f 12/22/21 14/28/27 13/53/2 45/30/29
f 3/57/4 33/31/30 8/19/18
f 33/56/30 3/4/4 13/1/2
f 4/16/15 6/51/6 15/54/5
f 32/17/16 4/62/15 15/5/5
f 33/31/30 42/32/31 8/19/18
f 40/27/26 44/11/10 17/10/9
f 40/27/26 17/10/9 24/61/13
f 17/10/9 5/12/11 18/15/14
f 18/15/14 43/21/20 9/13/12
f 26/33/32 19/34/33 20/35/34
f 21/7/7 35/2/3 43/21/20
f 20/35/34 19/34/33 21/7/7
f 38/36/35 2/8/8 21/7/7
f 32/17/16 22/37/36 11/18/17
f 26/33/32 36/38/37 8/19/18 19/34/33
f 10/48/38 23/29/28 13/59/2
f 29/26/25 27/25/24 37/3/39
f 3/4/4 6/51/6 24/14/13
f 40/27/26 24/61/13 6/6/6
f 25/40/40 23/29/28 39/47/41
f 31/42/42 12/22/21 23/29/28
f 26/33/32 18/15/14 5/12/11
f 26/33/32 20/35/34 18/15/14
f 41/23/22 25/40/40 27/25/24
f 25/40/40 39/60/41 27/25/24
f 32/17/16 15/5/5 7/20/19
f 7/20/19 8/19/18 36/38/37
f 1/49/1 29/26/25 37/3/39
f 2/8/8 29/26/25 1/49/1
f 32/17/16 7/20/19 30/43/43
f 31/42/42 23/29/28 25/40/40
f 32/17/16 30/43/43 28/44/44
f 32/17/16 28/44/44 22/37/36
f 14/28/27 16/24/23 33/31/30
f 13/53/2 14/28/27 33/31/30
f 22/37/36 34/45/45 11/18/17
f 21/7/7 1/49/1 35/2/3
f 7/20/19 36/38/37 30/43/43
f 13/1/2 37/46/39 10/39/38
f 39/47/41 23/29/28 10/48/38
f 38/36/35 21/7/7 19/34/33
f 39/41/41 10/39/38 37/46/39
f 27/25/24 39/60/41 37/3/39
f 11/18/17 40/27/26 4/55/15
f 34/45/45 40/27/26 11/18/17
f 16/24/23 42/32/31 33/31/30
f 20/35/34 21/7/7 43/21/20
f 20/35/34 43/21/20 18/15/14
f 44/11/10 40/27/26 34/45/45
f 23/29/28 45/30/29 13/59/2
f 19/34/33 8/19/18 42/32/31 38/36/35
f 34/45/45 22/37/36 28/44/44 30/43/43
f 34/45/45 30/43/43 36/38/37 44/11/10
f 44/11/10 36/38/37 26/33/32 5/12/11
f 25/40/40 41/23/22 12/22/21 31/42/42
f 16/24/23 2/8/8 38/36/35 42/32/31
f 37/46/39 13/1/2 1/9/1
