# This file uses centimeters as units for non-parametric coordinates.

mtllib Flooring_01_broken_03.mtl
g default
v 0.500428 -0.002739 -0.580503
v -0.083214 0.096803 -0.545095
v 0.249837 -0.002809 -0.948311
v -0.072340 -0.002337 -1.010764
v 0.485632 0.060315 -0.948285
v -0.285531 0.084526 -0.939846
v -0.161892 0.020686 -0.999813
v 0.250847 0.096812 -0.523056
v 0.499615 0.067527 -0.688912
v -0.000597 0.030923 -0.494436
v -0.405864 0.096818 -0.627328
v 0.137463 0.096534 -0.955533
v -0.204751 0.096332 -0.621293
v 0.288209 -0.002772 -0.506954
v 0.499112 -0.002847 -0.947413
v 0.218213 0.096848 -0.913019
v 0.134439 0.075026 -0.972152
v -0.241587 -0.002809 -0.605576
v 0.468112 0.096835 -0.891756
v -0.444864 -0.002840 -0.609856
v 0.270690 0.063522 -0.506803
v -0.290574 -0.002810 -0.965325
v -0.554348 -0.002742 -0.823438
v 0.354356 0.096840 -0.558513
v -0.413493 0.075207 -0.607255
v 0.369107 0.033706 -0.555711
v 0.222687 0.070629 -0.951952
v -0.292237 0.050257 -0.607415
v 0.482669 0.097265 -0.621724
v -0.272417 0.096815 -0.932229
v 0.499040 0.078178 -0.903072
v -0.000692 -0.002815 -0.494688
v -0.467776 0.057298 -0.650817
v 0.316038 0.079397 -0.948297
v -0.183018 0.096224 -0.598930
v -0.544368 0.073304 -0.807258
v 0.485397 0.081087 -0.592508
v -0.206890 0.031343 -0.590897
v -0.443961 0.096815 -0.665935
v 0.431088 -0.002794 -0.561756
v -0.188289 0.062339 -0.577853
v -0.515576 0.096628 -0.802058
vt 0.381500 0.171265
vt 0.393166 0.100883
vt 0.462870 0.285714
vt 0.917142 0.244205
vt 0.094781 0.706119
vt 0.478747 0.673499
vt 0.155603 0.610209
vt 0.446258 0.427584
vt 0.151884 0.309153
vt 0.390346 0.335258
vt 0.515594 0.480261
vt 0.658598 0.799956
vt 0.554528 0.703160
vt 0.211164 0.875782
vt 0.371695 0.878376
vt 0.129973 0.895527
vt 0.136718 0.610250
vt 0.061377 0.459294
vt 0.363225 0.184394
vt 0.330527 0.160673
vt 0.081339 0.392082
vt 0.506175 0.771367
vt 0.502923 0.879070
vt 0.421481 0.851315
vt 0.461353 0.751265
vt 0.447295 0.847182
vt 0.219372 0.850389
vt 0.436005 0.344157
vt 0.186944 0.668689
vt 0.164245 0.744770
vt 0.174820 0.877548
vt 0.407013 0.352524
vt 0.540153 0.475059
vt 0.505919 0.687890
vt 0.416197 0.259081
vt 0.343456 0.128923
vt 0.157111 0.073359
vt 0.140934 0.299749
vt 0.211835 0.094806
vt 0.449236 0.320150
vt 0.149191 0.675774
vt 0.223284 0.121382
vt 0.676281 0.850182
vt 0.522476 0.824654
vt 0.072973 0.286668
vt 0.797704 0.057032
vt 0.645850 0.149747
vt 0.934366 0.644647
vt 0.947450 0.828975
vt 0.585206 0.484457
vt 0.653896 0.300258
vt 0.610205 0.697353
vt 0.962770 0.403030
vt 0.454431 0.928995
vt 0.218477 0.036192
vt 0.176108 0.934256
vt 0.434172 0.136834
vn -0.147331 0.170824 0.974224
vn -0.473148 0.009125 0.880935
vn -0.148327 -0.026734 0.988577
vn -0.000068 -1.000000 -0.000138
vn 0.000005 -1.000000 0.000012
vn -0.000009 -1.000000 0.000003
vn 0.003038 0.993826 0.110910
vn 0.002853 0.996956 -0.077915
vn -0.037476 0.989797 0.137469
vn -0.024760 0.991538 -0.127435
vn -0.007025 0.999227 0.038678
vn -0.148315 0.317859 0.936466
vn 0.000174 -1.000000 -0.000042
vn 0.000020 -1.000000 0.000075
vn 0.956334 0.287072 -0.054905
vn 0.991538 0.128954 0.014937
vn 0.719064 0.003932 -0.694933
vn 0.163826 0.121956 -0.978922
vn 0.102314 -0.010894 -0.994693
vn 0.039740 0.364860 -0.930214
vn -0.007660 0.995626 0.093111
vn -0.139124 0.986280 0.088857
vn 0.000286 -0.999959 -0.009034
vn -0.079803 0.501563 -0.861433
vn -0.400991 0.265073 -0.876894
vn 0.342098 0.238607 0.908865
vn 0.186351 0.070103 0.979979
vn 0.267749 0.204949 0.941439
vn 0.921610 0.121102 0.368739
vn 0.215699 0.975080 0.051893
vn 0.050733 0.989703 0.133844
vn 0.444051 0.410341 0.796517
vn 0.070024 0.995219 -0.068081
vn -0.465146 0.087067 0.880942
vn -0.060944 0.165821 0.984271
vn 0.003181 0.999172 -0.040573
vn 0.024059 0.517263 -0.855488
vn 0.168184 0.323745 -0.931076
vn -0.385843 0.706992 0.592695
vn 0.000135 -1.000000 -0.000343
vn 0.140137 0.183114 0.973052
vn -0.000151 -1.000000 0.000295
vn 0.000203 -1.000000 0.000054
vn -0.240841 -0.038443 0.969803
vn -0.345078 0.061097 0.936583
vn -0.844283 0.189735 0.501185
vn -0.000178 -1.000000 -0.000056
vn 0.000161 -1.000000 -0.000542
vn -0.389831 0.420560 -0.819245
vn -0.800455 0.218729 -0.558058
vn -0.796316 0.375343 -0.474340
vn 0.126483 0.364639 -0.922518
vn -0.178571 0.969894 -0.165582
s 1
g Flooring_01_broken_08
usemtl initialShadingGroup
f 25/1/1 20/57/2 18/3/3
s 2
f 22/4/4 3/48/5 18/51/6
s 1
f 8/6/7 12/7/8 2/8/9
f 12/7/8 30/9/10 13/10/11
f 10/11/12 8/6/7 2/8/9
s 2
f 3/48/5 40/12/13 14/52/14
s 1
f 31/14/15 9/15/16 15/56/17
f 17/17/18 3/5/19 4/18/20
f 11/19/21 30/9/10 39/20/22
s 2
f 4/53/23 3/48/5 22/4/4
s 1
f 7/21/24 12/7/8 4/18/20
f 7/21/24 4/18/20 22/45/25
f 26/22/26 14/13/27 40/44/28
f 9/15/16 1/54/29 15/56/17
f 29/24/30 24/25/31 37/26/32
f 24/25/31 29/24/30 19/27/33
f 10/11/12 2/8/9 41/28/34
s 2
f 3/48/5 14/52/14 18/51/6
s 1
f 11/19/21 13/10/11 30/9/10
f 28/35/35 13/10/11 11/19/21
f 16/29/36 12/7/8 8/6/7
f 34/30/37 5/31/38 3/5/19
f 12/7/8 13/10/11 2/8/9
f 13/10/11 35/32/39 2/8/9
s 2
f 18/51/6 14/52/14 32/50/40
s 1
f 21/34/41 10/11/12 14/13/27
s 2
f 15/49/42 1/43/43 3/48/5
s 1
f 3/5/19 5/31/38 15/16/17
f 31/14/15 19/27/33 29/24/30
f 5/31/38 34/30/37 19/27/33
f 12/7/8 17/17/18 4/18/20
f 17/17/18 12/7/8 16/29/36
f 18/3/3 32/33/44 38/40/45
f 28/35/35 25/1/1 18/3/3 38/40/45
f 19/27/33 34/30/37 16/29/36
f 19/27/33 16/29/36 24/25/31
f 25/1/1 33/36/46 20/2/2
s 2
f 23/46/47 18/51/6 20/47/48
s 1
f 26/22/26 21/34/41 14/13/27
f 8/6/7 10/11/12 21/34/41
f 6/38/49 7/21/24 22/45/25
f 20/2/2 33/36/46 23/55/50
f 23/37/50 36/39/51 22/45/25
s 2
f 23/46/47 22/4/4 18/51/6
s 1
f 16/29/36 8/6/7 24/25/31
f 24/25/31 8/6/7 21/34/41
f 39/20/22 25/1/1 11/19/21
f 24/25/31 26/22/26 40/44/28
f 24/25/31 21/34/41 26/22/26
f 17/17/18 27/41/52 3/5/19
f 16/29/36 27/41/52 17/17/18
f 9/15/16 29/24/30 1/54/29
f 31/14/15 29/24/30 9/15/16
f 7/21/24 6/38/49 30/9/10
f 30/9/10 12/7/8 7/21/24
f 31/14/15 5/31/38 19/27/33
f 31/14/15 15/56/17 5/31/38
f 10/11/12 32/33/44 14/13/27
f 36/39/51 6/38/49 22/45/25
f 42/42/53 30/9/10 6/38/49 36/39/51
f 34/30/37 3/5/19 27/41/52
f 34/30/37 27/41/52 16/29/36
f 41/28/34 13/10/11 38/40/45
f 23/55/50 33/36/46 36/39/51
f 25/1/1 39/20/22 33/36/46
f 29/24/30 37/26/32 1/23/29
f 37/26/32 24/25/31 40/44/28
f 33/36/46 39/20/22 36/39/51
s 2
f 3/48/5 1/43/43 40/12/13
s 1
f 37/26/32 40/44/28 1/23/29
f 35/32/39 13/10/11 41/28/34
f 2/8/9 35/32/39 41/28/34
f 30/9/10 42/42/53 39/20/22
f 42/42/53 36/39/51 39/20/22
f 38/40/45 32/33/44 10/11/12 41/28/34
f 28/35/35 11/19/21 25/1/1
f 38/40/45 13/10/11 28/35/35
