# This file uses centimeters as units for non-parametric coordinates.

mtllib KeyModel.mtl
g default
v 0.319561 0.004565 0.324734
v 0.319565 0.004565 -0.334278
v 0.319565 0.144089 -0.334282
v -0.417854 0.074631 0.403141
v -0.417854 0.074631 -0.412685
v -0.339447 0.004565 0.324730
v 0.397972 0.074631 0.403145
v -0.339447 0.004565 -0.334278
v 0.397972 0.074631 -0.412689
v 0.319565 0.004563 -0.091000
v -0.339447 0.144089 0.324734
v 0.319565 0.144089 0.324734
v -0.339447 0.144087 -0.334278
v -0.137447 0.144196 0.169884
v -0.006777 0.144073 0.010127
v -0.277910 0.144133 -0.009718
v -0.018455 0.147121 0.000226
v -0.009655 0.144085 -0.009521
v 0.141079 0.146814 -0.000800
v 0.147077 0.144165 -0.009159
v -0.160828 0.144085 -0.159718
v -0.282124 0.144659 0.011591
v -0.321676 0.144094 0.000975
v -0.141423 0.144094 -0.143608
v -0.153147 0.146629 -0.148954
v 0.279985 0.144215 0.133190
v 0.076401 0.144114 0.010262
v -0.313414 0.145613 -0.001650
v -0.183489 0.145298 -0.006678
v -0.109459 0.144215 -0.081730
v 0.018831 0.147863 -0.000280
v 0.076065 0.144650 -0.003938
v 0.134236 0.144093 0.010680
vt 0.159841 0.013574
vt 0.320255 0.524055
vt 0.305259 0.600000
vt 0.302921 0.339156
vt 0.112061 0.336313
vt 0.401808 0.013574
vt 0.563778 0.336844
vt 0.253784 0.336311
vt 0.565956 0.597792
vt 0.485524 0.537218
vt 0.557844 0.469652
vt 0.372319 0.467213
vt 0.433296 0.474533
vt 0.493683 0.406555
vt 0.542162 0.474027
vt 0.437884 0.470415
vt 0.503103 0.467120
vt 0.486052 0.413005
vt 0.434351 0.466439
vt 0.400415 0.474800
vt 0.423129 0.470413
vt 0.473602 0.437596
vt 0.400470 0.469047
vt 0.374777 0.470600
vt 0.540428 0.465576
vt 0.490711 0.410884
vt 0.554500 0.468676
vt 0.377563 0.475183
vt 0.302708 0.304600
vt 0.211843 0.305965
vt 0.207621 0.045262
vt 0.310326 0.306067
vt 0.153931 0.305871
vt 0.298410 0.043908
vt 0.395092 0.336276
vt 0.063293 0.013574
vt 0.256462 0.013574
vt 0.261782 0.336300
vt 0.063431 0.336348
vt 0.164402 0.336311
vt 0.357566 0.139953
vt 0.359570 0.043723
vt 0.107211 0.044236
vt 0.116552 0.013574
vt 0.346141 0.013574
vt 0.065343 0.013574
vt 0.109456 0.304957
vt 0.201877 0.044004
vt 0.021704 0.044613
vt 0.354145 0.304396
vt 0.068123 0.336335
vt 0.352357 0.336284
vt 0.248550 0.013574
vt 0.205561 0.304706
vt 0.021816 0.305344
vt 0.305304 0.045388
vt 0.157558 0.045169
vn -0.666328 -0.745659 0.000000
vn -0.666328 -0.745659 0.000000
vn -0.666328 -0.745659 0.000000
vn 0.003181 0.999995 0.000000
vn 0.003181 0.999995 0.000000
vn 0.003181 0.999995 0.000000
vn 0.663097 0.748533 0.000000
vn 0.663097 0.748533 0.000000
vn 0.663097 0.748533 0.000000
vn -0.000006 0.748545 -0.663084
vn -0.000006 0.748545 -0.663084
vn -0.000006 0.748545 -0.663084
vn -0.000003 0.748532 -0.663099
vn -0.000003 0.748532 -0.663099
vn -0.000003 0.748532 -0.663099
vn -0.000004 -0.745677 0.666308
vn -0.000004 -0.745677 0.666308
vn -0.000004 -0.745677 0.666308
vn -0.666328 -0.745659 0.000000
vn -0.666328 -0.745659 0.000000
vn -0.666328 -0.745659 0.000000
vn 0.666310 -0.745675 0.000000
vn 0.666310 -0.745675 0.000000
vn 0.666310 -0.745675 0.000000
vn -0.000003 -0.745673 0.666312
vn -0.000003 -0.745673 0.666312
vn -0.000003 -0.745673 0.666312
vn -0.000003 -0.745660 -0.666326
vn -0.000003 -0.745660 -0.666326
vn -0.000003 -0.745660 -0.666326
vn 0.666360 -0.745631 0.000010
vn 0.666360 -0.745631 0.000010
vn 0.666360 -0.745631 0.000010
vn 0.000000 -0.745675 -0.666310
vn 0.000000 -0.745675 -0.666310
vn 0.000000 -0.745675 -0.666310
vn 0.666325 -0.745662 -0.000006
vn 0.666325 -0.745662 -0.000006
vn 0.666325 -0.745662 -0.000006
vn 0.000000 0.748533 0.663097
vn 0.000000 0.748533 0.663097
vn 0.000000 0.748533 0.663097
vn -0.663087 0.748542 0.000000
vn -0.663087 0.748542 0.000000
vn -0.663087 0.748542 0.000000
vn 0.663097 0.748534 0.000000
vn 0.663097 0.748534 0.000000
vn 0.663097 0.748534 0.000000
vn -0.000003 0.748548 0.663081
vn -0.000003 0.748548 0.663081
vn -0.000003 0.748548 0.663081
vn -0.663098 0.748532 -0.000002
vn -0.663098 0.748532 -0.000002
vn -0.663098 0.748532 -0.000002
vn 0.000000 1.000000 0.000690
vn 0.000000 1.000000 0.000690
vn 0.000000 1.000000 0.000690
vn -0.000375 1.000000 -0.000003
vn -0.000375 1.000000 -0.000003
vn -0.000375 1.000000 -0.000003
vn -0.000003 1.000000 -0.000236
vn -0.000003 1.000000 -0.000236
vn -0.000003 1.000000 -0.000236
vn 0.000386 1.000000 -0.000449
vn 0.000386 1.000000 -0.000449
vn 0.000386 1.000000 -0.000449
vn 0.000035 1.000000 -0.000025
vn 0.000035 1.000000 -0.000025
vn 0.000035 1.000000 -0.000025
vn -0.010204 0.999745 -0.020126
vn -0.010204 0.999745 -0.020126
vn -0.010204 0.999745 -0.020126
vn -0.000438 1.000000 0.000415
vn -0.000438 1.000000 0.000415
vn -0.000438 1.000000 0.000415
vn 0.003579 0.956905 0.290379
vn 0.003579 0.956905 0.290379
vn 0.003579 0.956905 0.290379
vn 0.001825 0.955216 -0.295905
vn 0.001825 0.955216 -0.295905
vn 0.001825 0.955216 -0.295905
vn 0.284842 0.957691 -0.041157
vn 0.284842 0.957691 -0.041157
vn 0.284842 0.957691 -0.041157
vn -0.000482 1.000000 0.000452
vn -0.000482 1.000000 0.000452
vn -0.000482 1.000000 0.000452
vn -0.001005 0.940416 0.340026
vn -0.001005 0.940416 0.340026
vn -0.001005 0.940416 0.340026
vn 0.005454 0.999812 -0.018595
vn 0.005454 0.999812 -0.018595
vn 0.005454 0.999812 -0.018595
vn -0.016524 0.949661 -0.312843
vn -0.016524 0.949661 -0.312843
vn -0.016524 0.949661 -0.312843
vn -0.000078 1.000000 -0.000276
vn -0.000078 1.000000 -0.000276
vn -0.000078 1.000000 -0.000276
vn 0.057234 0.995964 0.069143
vn 0.057234 0.995964 0.069143
vn 0.057234 0.995964 0.069143
vn 0.000870 0.999997 -0.002391
vn 0.000870 0.999997 -0.002391
vn 0.000870 0.999997 -0.002391
vn 0.002132 0.999997 0.000980
vn 0.002132 0.999997 0.000980
vn 0.002132 0.999997 0.000980
vn -0.000538 1.000000 -0.000012
vn -0.000538 1.000000 -0.000012
vn -0.000538 1.000000 -0.000012
vn 0.047587 0.998043 -0.040571
vn 0.047587 0.998043 -0.040571
vn 0.047587 0.998043 -0.040571
vn 0.004764 0.998149 0.060633
vn 0.004764 0.998149 0.060633
vn 0.004764 0.998149 0.060633
vn -0.003326 0.999989 0.003420
vn -0.003326 0.999989 0.003420
vn -0.003326 0.999989 0.003420
vn 0.144519 0.978516 0.147043
vn 0.144519 0.978516 0.147043
vn 0.144519 0.978516 0.147043
vn -0.135290 0.981500 -0.135479
vn -0.135290 0.981500 -0.135479
vn -0.135290 0.981500 -0.135479
vn 0.383826 0.799057 -0.462802
vn 0.383826 0.799057 -0.462802
vn 0.383826 0.799057 -0.462802
vn 0.185451 0.967217 -0.173490
vn 0.185451 0.967217 -0.173490
vn 0.185451 0.967217 -0.173490
vn -0.042512 0.977540 0.206418
vn -0.042512 0.977540 0.206418
vn -0.042512 0.977540 0.206418
vn -0.130570 0.979348 0.154363
vn -0.130570 0.979348 0.154363
vn -0.130570 0.979348 0.154363
vn -0.001682 0.999998 0.001005
vn -0.001682 0.999998 0.001005
vn -0.001682 0.999998 0.001005
vn -0.133914 0.980257 0.145474
vn -0.133914 0.980257 0.145474
vn -0.133914 0.980257 0.145474
vn -0.257152 0.926895 -0.273382
vn -0.257152 0.926895 -0.273382
vn -0.257152 0.926895 -0.273382
vn -0.005518 0.978981 -0.203877
vn -0.005518 0.978981 -0.203877
vn -0.005518 0.978981 -0.203877
vn -0.001079 0.999998 -0.001384
vn -0.001079 0.999999 -0.001384
vn -0.001079 0.999999 -0.001384
vn -0.011507 0.999601 -0.025780
vn -0.011507 0.999601 -0.025780
vn -0.011507 0.999601 -0.025780
vn 0.006852 0.999947 -0.007675
vn 0.006852 0.999947 -0.007675
vn 0.006852 0.999947 -0.007675
vn -0.138095 0.990201 0.020800
vn -0.138095 0.990201 0.020800
vn -0.138095 0.990201 0.020800
vn 0.058339 0.997637 0.036278
vn 0.058339 0.997638 0.036278
vn 0.058339 0.997637 0.036278
vn -0.007366 0.999901 0.011977
vn -0.007366 0.999901 0.011977
vn -0.007366 0.999901 0.011977
vn 0.022551 0.899125 -0.437110
vn 0.022551 0.899125 -0.437110
vn 0.022551 0.899125 -0.437110
vn 0.000089 0.999288 0.037717
vn 0.000089 0.999289 0.037717
vn 0.000089 0.999289 0.037717
vn 0.000364 1.000000 -0.000203
vn 0.000364 1.000000 -0.000203
vn 0.000364 1.000000 -0.000203
s off
g KeyTileLow:Group36498
usemtl lambert4SG
f 8/48/1 6/54/2 5/1/3
f 26/2/4 12/3/5 3/4/6
f 7/5/7 9/44/8 3/57/9
f 13/32/10 3/56/11 5/52/12
f 3/56/13 9/45/14 5/52/15
f 4/39/16 6/55/17 1/49/18
f 6/54/19 4/40/20 5/1/21
f 7/35/22 1/50/23 9/6/24
f 7/36/25 4/39/26 1/49/27
f 8/47/28 5/51/29 9/46/30
f 9/6/31 1/50/32 10/41/33
f 2/43/34 8/47/35 9/46/36
f 9/6/37 10/41/38 2/42/39
f 12/34/40 11/29/41 4/38/42
f 4/8/43 13/31/44 5/53/45
f 12/33/46 7/5/47 3/57/48
f 7/37/49 12/34/50 4/38/51
f 4/8/52 11/30/53 13/31/54
f 11/9/55 12/3/56 14/10/57
f 23/11/58 13/7/59 11/9/60
f 20/12/61 3/4/62 13/7/63
f 12/3/64 15/13/65 14/10/66
f 23/11/67 21/14/68 13/7/69
f 22/15/70 17/16/71 29/17/72
f 24/18/73 20/12/74 13/7/75
f 15/13/76 17/16/77 22/15/78
f 17/16/79 18/19/80 29/17/81
f 15/13/82 18/19/83 17/16/84
f 12/3/85 27/20/86 15/13/87
f 27/20/88 31/21/89 15/13/90
f 30/22/91 32/23/92 20/12/93
f 19/24/94 20/12/95 32/23/96
f 26/2/97 3/4/98 20/12/99
f 16/25/100 25/26/101 28/27/102
f 30/22/103 20/12/104 24/18/105
f 14/10/106 15/13/107 22/15/108
f 14/10/109 23/11/110 11/9/111
f 14/10/112 22/15/113 28/27/114
f 22/15/115 29/17/116 28/27/117
f 21/14/118 24/18/119 13/7/120
f 16/25/121 24/18/122 25/26/123
f 25/26/124 21/14/125 23/11/126
f 25/26/127 24/18/128 21/14/129
f 26/2/130 20/12/131 19/24/132
f 33/28/133 19/24/134 32/23/135
f 26/2/136 19/24/137 33/28/138
f 12/3/139 26/2/140 33/28/141
f 14/10/142 28/27/143 23/11/144
f 25/26/145 23/11/146 28/27/147
f 29/17/148 16/25/149 28/27/150
f 30/22/151 24/18/152 16/25/153
f 29/17/154 30/22/155 16/25/156
f 30/22/157 29/17/158 18/19/159
f 15/13/160 31/21/161 18/19/162
f 27/20/163 32/23/164 31/21/165
f 32/23/166 30/22/167 18/19/168
f 32/23/169 18/19/170 31/21/171
f 33/28/172 32/23/173 27/20/174
f 33/28/175 27/20/176 12/3/177
