# Blender v2.67 (sub 0) OBJ File: ''
# www.blender.org
v 0.308057 -0.656080 -0.079056
v 0.323910 -0.656080 -0.000000
v 0.308057 -0.656080 0.079056
v 0.262049 -0.656080 0.150373
v 0.190390 -0.656080 0.206970
v 0.100094 -0.656080 0.243308
v 0.000000 -0.656080 0.255829
v -0.100094 -0.656080 0.243308
v -0.190390 -0.656080 0.206970
v -0.262049 -0.656080 0.150373
v -0.308058 -0.656080 0.079056
v -0.323911 -0.656080 -0.000000
v -0.308058 -0.656080 -0.079056
v -0.262049 -0.656080 -0.150373
v -0.190390 -0.656080 -0.206970
v -0.100094 -0.656080 -0.243308
v 0.000000 -0.656080 -0.255829
v 0.100094 -0.656080 -0.243308
v 0.190390 -0.656080 -0.206970
v 0.262049 -0.656080 -0.150373
v 0.000000 1.560062 0.000000
vt 0.250000 0.500000
vt 0.275000 0.500000
vt 0.500000 1.000000
vt 0.300000 0.500000
vt 0.325000 0.500000
vt 0.350000 0.500000
vt 0.375000 0.500000
vt 0.400000 0.500000
vt 0.425000 0.500000
vt 0.450000 0.500000
vt 0.475000 0.500000
vt 0.500000 0.500000
vt 0.525000 0.500000
vt 0.550000 0.500000
vt 0.575000 0.500000
vt 0.600000 0.500000
vt 0.625000 0.500000
vt 0.650000 0.500000
vt 0.675000 0.500000
vt 0.700000 0.500000
vt 0.725000 0.500000
vt 0.750000 0.500000
vt 0.646946 0.047746
vt 0.702254 0.103054
vt 0.577254 0.012236
vt 0.737764 0.172746
vt 0.750000 0.250000
vt 0.737764 0.327254
vt 0.702254 0.396946
vt 0.646946 0.452254
vt 0.262236 0.327254
vt 0.353054 0.452254
vt 0.297746 0.396946
vt 0.250000 0.250000
vt 0.262236 0.172746
vt 0.297746 0.103054
vt 0.577254 0.487764
vt 0.422746 0.487764
vt 0.353054 0.047746
vt 0.422746 0.012236
vt 0.500000 -0.000000
vn 0.731956 -0.614124 -0.295083
vn 0.580920 -0.622181 -0.524735
vn 0.000031 1.000000 0.000061
vn 0.391125 -0.630207 -0.670675
vn 0.194617 -0.635517 -0.747124
vn 0.000000 -0.637349 -0.770562
vn -0.194617 -0.635517 -0.747124
vn -0.391125 -0.630207 -0.670675
vn -0.580920 -0.622181 -0.524766
vn -0.731956 -0.614124 -0.295083
vn -0.791955 -0.610553 0.000000
vn -0.731956 -0.614124 0.295083
vn -0.580920 -0.622181 0.524766
vn -0.391125 -0.630207 0.670675
vn -0.194586 -0.635517 0.747124
vn 0.000000 -0.637349 0.770562
vn 0.194586 -0.635517 0.747124
vn 0.391125 -0.630207 0.670675
vn 0.580920 -0.622181 0.524735
vn 0.731956 -0.614124 0.295083
vn 0.791955 -0.610553 0.000000
s 1
f 1/1/1 20/2/2 21/3/3
f 20/2/2 19/4/4 21/3/3
f 19/4/4 18/5/5 21/3/3
f 18/5/5 17/6/6 21/3/3
f 17/6/6 16/7/7 21/3/3
f 16/7/7 15/8/8 21/3/3
f 15/8/8 14/9/9 21/3/3
f 14/9/9 13/10/10 21/3/3
f 13/10/10 12/11/11 21/3/3
f 12/11/11 11/12/12 21/3/3
f 11/12/12 10/13/13 21/3/3
f 10/13/13 9/14/14 21/3/3
f 9/14/14 8/15/15 21/3/3
f 8/15/15 7/16/16 21/3/3
f 7/16/16 6/17/17 21/3/3
f 6/17/17 5/18/18 21/3/3
f 5/18/18 4/19/19 21/3/3
f 4/19/19 3/20/20 21/3/3
f 3/20/20 2/21/21 21/3/3
f 2/21/21 1/22/1 21/3/3
f 19/23/4 20/24/2 18/25/5
f 20/24/2 1/26/1 18/25/5
f 1/26/1 2/27/21 18/25/5
f 2/27/21 3/28/20 18/25/5
f 3/28/20 4/29/19 18/25/5
f 4/29/19 5/30/18 18/25/5
f 11/31/12 9/32/14 10/33/13
f 12/34/11 9/32/14 11/31/12
f 13/35/10 9/32/14 12/34/11
f 14/36/9 9/32/14 13/35/10
f 5/30/18 6/37/17 18/25/5
f 6/37/17 7/12/16 18/25/5
f 7/12/16 8/38/15 18/25/5
f 8/38/15 9/32/14 18/25/5
f 9/32/14 14/36/9 18/25/5
f 14/36/9 15/39/8 18/25/5
f 15/39/8 16/40/7 18/25/5
f 16/40/7 17/41/6 18/25/5
