# Blender v2.67 (sub 0) OBJ File: ''
# www.blender.org
v 0.308057 -0.656080 -0.079056
v 0.323910 -0.656080 -0.000000
v 0.308057 -0.656080 0.079056
v 0.262049 -0.656080 0.150373
v 0.190390 -0.656080 0.206970
v 0.100094 -0.656080 0.243308
v 0.000000 -0.656080 0.255829
v -0.100094 -0.656080 0.243308
v -0.190390 -0.656080 0.206970
v -0.262049 -0.656080 0.150373
v -0.308058 -0.656080 0.079056
v -0.323911 -0.656080 -0.000000
v -0.308058 -0.656080 -0.079056
v -0.262049 -0.656080 -0.150373
v -0.190390 -0.656080 -0.206970
v -0.100094 -0.656080 -0.243308
v 0.000000 -0.656080 -0.255829
v 0.100094 -0.656080 -0.243308
v 0.190390 -0.656080 -0.206970
v 0.262049 -0.656080 -0.150373
v 0.000000 1.560062 0.000000
vt 0.250000 0.500000
vt 0.275000 0.500000
vt 0.500000 1.000000
vt 0.300000 0.500000
vt 0.325000 0.500000
vt 0.350000 0.500000
vt 0.375000 0.500000
vt 0.400000 0.500000
vt 0.425000 0.500000
vt 0.450000 0.500000
vt 0.475000 0.500000
vt 0.500000 0.500000
vt 0.525000 0.500000
vt 0.550000 0.500000
vt 0.575000 0.500000
vt 0.600000 0.500000
vt 0.625000 0.500000
vt 0.650000 0.500000
vt 0.675000 0.500000
vt 0.700000 0.500000
vt 0.725000 0.500000
vt 0.750000 0.500000
vt 0.646946 0.047746
vt 0.702254 0.103054
vt 0.577254 0.012236
vt 0.737764 0.172746
vt 0.750000 0.250000
vt 0.737764 0.327254
vt 0.702254 0.396946
vt 0.646946 0.452254
vt 0.262236 0.327254
vt 0.353054 0.452254
vt 0.297746 0.396946
vt 0.250000 0.250000
vt 0.262236 0.172746
vt 0.297746 0.103054
vt 0.577254 0.487764
vt 0.422746 0.487764
vt 0.353054 0.047746
vt 0.422746 0.012236
vt 0.500000 -0.000000
vn 0.832631 0.134902 -0.537147
vn 0.614904 0.125537 -0.778546
vn 0.370732 0.117885 -0.921228
vn 0.123319 0.113802 -0.985820
vn -0.123319 0.113802 -0.985820
vn -0.370732 0.117885 -0.921228
vn -0.614904 0.125537 -0.778546
vn -0.832626 0.134902 -0.537155
vn -0.970565 0.141858 -0.194626
vn -0.970565 0.141858 0.194626
vn -0.832626 0.134902 0.537155
vn -0.614904 0.125537 0.778546
vn -0.370732 0.117885 0.921228
vn -0.123318 0.113802 0.985820
vn 0.123318 0.113802 0.985820
vn 0.370732 0.117885 0.921228
vn 0.614904 0.125537 0.778546
vn 0.832631 0.134902 0.537147
vn 0.970565 0.141857 0.194626
vn 0.970565 0.141857 -0.194626
vn 0.000001 -1.000000 -0.000002
vn -0.000001 -1.000000 0.000000
vn -0.000000 -1.000000 0.000000
vn 0.000001 -1.000000 -0.000000
vn -0.000002 -1.000000 0.000001
vn -0.000000 -1.000000 -0.000001
s off
f 1/1/1 20/2/1 21/3/1
f 20/2/2 19/4/2 21/3/2
f 19/4/3 18/5/3 21/3/3
f 18/5/4 17/6/4 21/3/4
f 17/6/5 16/7/5 21/3/5
f 16/7/6 15/8/6 21/3/6
f 15/8/7 14/9/7 21/3/7
f 14/9/8 13/10/8 21/3/8
f 13/10/9 12/11/9 21/3/9
f 12/11/10 11/12/10 21/3/10
f 11/12/11 10/13/11 21/3/11
f 10/13/12 9/14/12 21/3/12
f 9/14/13 8/15/13 21/3/13
f 8/15/14 7/16/14 21/3/14
f 7/16/15 6/17/15 21/3/15
f 6/17/16 5/18/16 21/3/16
f 5/18/17 4/19/17 21/3/17
f 4/19/18 3/20/18 21/3/18
f 3/20/19 2/21/19 21/3/19
f 2/21/20 1/22/20 21/3/20
f 19/23/21 20/24/21 18/25/21
f 20/24/22 1/26/22 18/25/22
f 1/26/23 2/27/23 18/25/23
f 2/27/23 3/28/23 18/25/23
f 3/28/23 4/29/23 18/25/23
f 4/29/24 5/30/24 18/25/24
f 11/31/25 9/32/25 10/33/25
f 12/34/22 9/32/22 11/31/22
f 13/35/23 9/32/23 12/34/23
f 14/36/23 9/32/23 13/35/23
f 5/30/23 6/37/23 18/25/23
f 6/37/23 7/12/23 18/25/23
f 7/12/23 8/38/23 18/25/23
f 8/38/23 9/32/23 18/25/23
f 9/32/23 14/36/23 18/25/23
f 14/36/26 15/39/26 18/25/26
f 15/39/23 16/40/23 18/25/23
f 16/40/23 17/41/23 18/25/23
