# Blender v2.67 (sub 0) OBJ File: ''
# www.blender.org
v -1.000000 -1.000000 1.000000
v -1.000000 -1.000000 -1.000000
v 1.000000 -1.000000 -1.000000
v 1.000000 -1.000000 1.000000
v -1.000000 1.000000 1.000000
v -1.000000 1.000000 -1.000000
v 1.000000 1.000000 -1.000000
v 1.000000 1.000000 1.000000
vt 0.000000 0.000000
vt 1.000000 0.000000
vt 0.000000 1.000000
vt 1.000000 1.000000
vn -1.000000 0.000000 0.000000
vn 0.000000 0.000000 -1.000000
vn 1.000000 -0.000000 0.000000
vn 0.000000 0.000000 1.000000
vn 0.000000 -1.000000 0.000000
vn 0.000000 1.000000 0.000000
s off
f 5/1/1 6/2/1 1/3/1
f 6/1/2 7/2/2 2/3/2
f 7/1/3 8/2/3 4/4/3
f 8/1/4 5/2/4 1/4/4
f 1/1/5 2/2/5 3/4/5
f 8/1/6 7/2/6 6/4/6
f 6/2/1 2/4/1 1/3/1
f 7/2/2 3/4/2 2/3/2
f 3/3/3 7/1/3 4/4/3
f 4/3/4 8/1/4 1/4/4
f 4/3/5 1/1/5 3/4/5
f 5/3/6 8/1/6 6/4/6
