# Blender v2.67 (sub 0) OBJ File: ''
# www.blender.org
v -0.382683 0.923880 0.000000
v -0.707107 0.707107 0.000000
v -0.923880 0.382683 0.000000
v -1.000000 -0.000000 0.000000
v -0.923880 -0.382684 0.000000
v -0.707107 -0.707107 0.000000
v -0.382683 -0.923880 0.000000
v -0.353553 0.923880 -0.146447
v -0.653281 0.707107 -0.270598
v -0.853553 0.382683 -0.353553
v -0.923880 -0.000000 -0.382683
v -0.853553 -0.382684 -0.353553
v -0.653281 -0.707107 -0.270598
v -0.353553 -0.923880 -0.146447
v -0.270598 0.923880 -0.270598
v -0.500000 0.707107 -0.500000
v -0.653282 0.382683 -0.653281
v -0.707107 -0.000000 -0.707107
v -0.653282 -0.382684 -0.653281
v -0.500000 -0.707107 -0.500000
v -0.270598 -0.923880 -0.270598
v -0.146447 0.923880 -0.353553
v -0.270598 0.707107 -0.653281
v -0.353553 0.382683 -0.853553
v -0.382683 -0.000000 -0.923879
v -0.353553 -0.382684 -0.853553
v -0.270598 -0.707107 -0.653281
v -0.146447 -0.923880 -0.353553
v -0.000000 0.923880 -0.382683
v -0.000000 0.707107 -0.707106
v -0.000000 0.382683 -0.923879
v -0.000000 -0.000000 -1.000000
v -0.000000 -0.382684 -0.923879
v -0.000000 -0.707107 -0.707106
v -0.000000 -0.923880 -0.382683
v -0.000000 1.000000 0.000000
v 0.146446 0.923880 -0.353553
v 0.270598 0.707107 -0.653281
v 0.353553 0.382683 -0.853553
v 0.382683 -0.000000 -0.923879
v 0.353553 -0.382684 -0.853553
v 0.270598 -0.707107 -0.653281
v 0.146446 -0.923880 -0.353553
v 0.270598 0.923880 -0.270598
v 0.500000 0.707107 -0.500000
v 0.653281 0.382683 -0.653281
v 0.707106 -0.000000 -0.707106
v 0.653281 -0.382684 -0.653281
v 0.500000 -0.707107 -0.500000
v 0.270598 -0.923880 -0.270598
v 0.353553 0.923880 -0.146446
v 0.653281 0.707107 -0.270598
v 0.853553 0.382683 -0.353553
v 0.923879 -0.000000 -0.382683
v 0.853553 -0.382684 -0.353553
v 0.653281 -0.707107 -0.270598
v 0.353553 -0.923880 -0.146446
v 0.382683 0.923880 0.000000
v 0.707106 0.707107 0.000000
v 0.923879 0.382683 0.000000
v 0.999999 -0.000000 0.000000
v 0.923879 -0.382684 0.000000
v 0.707106 -0.707107 0.000000
v 0.382683 -0.923880 0.000000
v 0.353553 0.923880 0.146447
v 0.653281 0.707107 0.270598
v 0.853553 0.382683 0.353553
v 0.923879 -0.000000 0.382683
v 0.853553 -0.382684 0.353553
v 0.653281 -0.707107 0.270598
v 0.353553 -0.923880 0.146447
v 0.270598 0.923880 0.270598
v 0.500000 0.707107 0.500000
v 0.653281 0.382683 0.653281
v 0.707106 -0.000000 0.707106
v 0.653281 -0.382684 0.653281
v 0.500000 -0.707107 0.500000
v 0.270598 -0.923880 0.270598
v 0.146446 0.923880 0.353553
v 0.270598 0.707107 0.653281
v 0.353553 0.382683 0.853553
v 0.382683 -0.000000 0.923879
v 0.353553 -0.382684 0.853553
v 0.270598 -0.707107 0.653281
v 0.146446 -0.923880 0.353553
v -0.000000 0.923880 0.382683
v -0.000000 0.707107 0.707106
v -0.000000 0.382683 0.923879
v -0.000000 -0.000000 0.999999
v -0.000000 -0.382684 0.923879
v -0.000000 -0.707107 0.707106
v -0.000000 -0.923880 0.382683
v -0.146447 0.923880 0.353553
v -0.270598 0.707107 0.653281
v -0.353553 0.382683 0.853553
v -0.382683 -0.000000 0.923879
v -0.353553 -0.382684 0.853553
v -0.270598 -0.707107 0.653281
v -0.146447 -0.923880 0.353553
v -0.000000 -1.000000 0.000000
v -0.270598 0.923880 0.270598
v -0.500000 0.707107 0.500000
v -0.653281 0.382683 0.653281
v -0.707107 -0.000000 0.707106
v -0.653281 -0.382684 0.653281
v -0.500000 -0.707107 0.500000
v -0.270598 -0.923880 0.270598
v -0.353553 0.923880 0.146446
v -0.653281 0.707107 0.270598
v -0.853553 0.382683 0.353553
v -0.923879 -0.000000 0.382683
v -0.853553 -0.382684 0.353553
v -0.653281 -0.707107 0.270598
v -0.353553 -0.923880 0.146446
vt 0.038499 0.227114
vt 0.054939 0.349504
vt 0.002933 0.233994
vt 0.088773 0.719153
vt 0.114594 0.840026
vt 0.012893 0.733683
vt 0.065727 0.472799
vt 0.006064 0.358896
vt 0.237557 0.942810
vt 0.018835 0.858498
vt 0.075787 0.596209
vt 0.008166 0.483831
vt 0.010182 0.608768
vt 1.018835 0.858498
vt 1.095845 0.981029
vt 0.917595 0.851544
vt 1.008166 0.483831
vt 1.010182 0.608768
vt 0.950418 0.479827
vt 1.012893 0.733683
vt 0.944006 0.604188
vt 1.002933 0.233994
vt 1.006064 0.358896
vt 0.967320 0.231514
vt 0.935511 0.728340
vt 0.957174 0.355501
vt 0.790153 0.962378
vt 0.831430 0.822781
vt 0.893220 0.461355
vt 0.879550 0.583381
vt 0.931853 0.219813
vt 0.862583 0.704679
vt 0.908301 0.339640
vt 0.722769 0.920653
vt 0.762937 0.783199
vt 0.836737 0.430924
vt 0.817895 0.550183
vt 0.896624 0.199517
vt 0.796556 0.668660
vt 0.859126 0.312778
vt 0.680988 0.880256
vt 0.644326 0.843740
vt 0.758418 0.509913
vt 0.736180 0.627224
vt 0.808553 0.277339
vt 0.705465 0.741459
vt 0.780129 0.392414
vt 0.609005 0.812762
vt 0.699408 0.468287
vt 0.678923 0.586517
vt 0.861463 0.171661
vt 0.754214 0.236621
vt 0.653511 0.703057
vt 0.721544 0.350619
vt 0.573853 0.788749
vt 0.638946 0.431048
vt 0.622551 0.551728
vt 0.825668 0.137568
vt 0.691768 0.195172
vt 0.603877 0.671794
vt 0.658471 0.311212
vt 0.538499 0.772887
vt 0.575787 0.403791
vt 0.565727 0.527201
vt 0.787136 0.098774
vt 0.614594 0.159974
vt 0.554939 0.650496
vt 0.588773 0.280847
vt 0.502933 0.766007
vt 0.510182 0.391232
vt 0.508166 0.516170
vt 0.737557 0.057190
vt 0.518835 0.141502
vt 0.506064 0.641104
vt 0.512893 0.266317
vt 0.467320 0.768486
vt 0.444005 0.395812
vt 0.450418 0.520173
vt 0.595845 0.018971
vt 0.417595 0.148456
vt 0.457174 0.644499
vt 0.435511 0.271660
vt 0.431853 0.780187
vt 0.379550 0.416619
vt 0.393220 0.538645
vt 0.290152 0.037622
vt 0.331430 0.177219
vt 0.408301 0.660361
vt 0.362583 0.295321
vt 0.396624 0.800483
vt 0.317895 0.449817
vt 0.336737 0.569076
vt 0.222769 0.079347
vt 0.262937 0.216801
vt 0.359126 0.687222
vt 0.296556 0.331340
vt 0.308553 0.722661
vt 0.236180 0.372776
vt 0.258418 0.490087
vt 0.180988 0.119744
vt 0.144326 0.156260
vt 0.280129 0.607586
vt 0.205465 0.258542
vt 0.361463 0.828339
vt 0.254214 0.763379
vt 0.178923 0.413483
vt 0.199408 0.531713
vt 0.109005 0.187238
vt 0.221544 0.649381
vt 0.153511 0.296943
vt 0.325668 0.862432
vt 0.191768 0.804828
vt 0.122551 0.448272
vt 0.138946 0.568952
vt 0.073853 0.211251
vt 0.158471 0.688788
vt 0.103877 0.328206
vt 0.994527 0.109256
vt 1.038499 0.227114
vt 0.494527 0.890744
vt 0.095845 0.981029
vt 1.290152 0.037622
vt 1.222769 0.079347
vt 1.180988 0.119744
vt 1.144326 0.156260
vt 1.109005 0.187238
vt 1.073853 0.211251
vt 0.287135 0.901226
vn -0.552209 -0.826438 -0.109841
vn -0.820326 0.548124 -0.163173
vn -0.820326 -0.548124 -0.163173
vn -0.552209 0.826439 -0.109841
vn -0.962637 -0.191480 -0.191481
vn -0.962637 0.191481 -0.191481
vn -0.468140 0.826439 -0.312801
vn -0.816085 -0.191481 -0.545290
vn -0.816084 0.191481 -0.545290
vn -0.468140 -0.826438 -0.312801
vn -0.695439 0.548124 -0.464677
vn -0.695439 -0.548124 -0.464677
vn -0.312801 0.826439 -0.468140
vn -0.545290 -0.191480 -0.816085
vn -0.545290 0.191480 -0.816085
vn -0.312801 -0.826438 -0.468140
vn -0.464677 0.548124 -0.695439
vn -0.464677 -0.548124 -0.695439
vn -0.109841 0.826438 -0.552209
vn -0.191480 -0.191480 -0.962637
vn -0.191480 0.191480 -0.962637
vn -0.109841 -0.826438 -0.552209
vn -0.163173 0.548124 -0.820326
vn -0.163173 -0.548124 -0.820326
vn 0.109841 0.826438 -0.552209
vn 0.191481 -0.191480 -0.962637
vn 0.191481 0.191480 -0.962637
vn 0.109841 -0.826438 -0.552209
vn 0.163173 0.548124 -0.820326
vn 0.163173 -0.548124 -0.820326
vn 0.312801 0.826438 -0.468140
vn 0.545290 -0.191480 -0.816084
vn 0.545290 0.191480 -0.816084
vn 0.312801 -0.826438 -0.468140
vn 0.464677 0.548124 -0.695439
vn 0.464677 -0.548124 -0.695438
vn 0.468140 0.826438 -0.312801
vn 0.816085 -0.191480 -0.545290
vn 0.816085 0.191480 -0.545290
vn 0.468140 -0.826438 -0.312801
vn 0.695439 0.548124 -0.464677
vn 0.695439 -0.548124 -0.464677
vn 0.552209 0.826439 -0.109841
vn 0.962637 -0.191480 -0.191480
vn 0.962637 0.191480 -0.191480
vn 0.552209 -0.826438 -0.109841
vn 0.820326 0.548124 -0.163173
vn 0.820326 -0.548124 -0.163173
vn 0.552209 0.826438 0.109841
vn 0.962637 -0.191480 0.191480
vn 0.962637 0.191480 0.191481
vn 0.552209 -0.826438 0.109841
vn 0.820326 0.548124 0.163173
vn 0.820326 -0.548124 0.163173
vn 0.468140 0.826438 0.312801
vn 0.816084 -0.191480 0.545290
vn 0.816084 0.191480 0.545290
vn 0.468140 -0.826438 0.312801
vn 0.695439 0.548124 0.464677
vn 0.695439 -0.548124 0.464677
vn 0.312801 0.826439 0.468140
vn 0.545290 -0.191480 0.816085
vn 0.545290 0.191480 0.816085
vn 0.312801 -0.826438 0.468140
vn 0.464677 0.548124 0.695439
vn 0.464677 -0.548124 0.695439
vn 0.109841 0.826439 0.552209
vn 0.191480 -0.191480 0.962637
vn 0.191480 0.191480 0.962637
vn 0.109841 -0.826438 0.552209
vn 0.163173 0.548124 0.820326
vn 0.163173 -0.548124 0.820326
vn -0.109841 0.826438 0.552209
vn -0.191481 -0.191480 0.962637
vn -0.191480 0.191480 0.962637
vn -0.109841 -0.826438 0.552209
vn -0.163173 0.548124 0.820326
vn -0.163173 -0.548124 0.820326
vn -0.312801 0.826439 0.468140
vn -0.545290 -0.191480 0.816084
vn -0.545290 0.191480 0.816084
vn -0.312801 -0.826438 0.468140
vn -0.464678 0.548124 0.695439
vn -0.464677 -0.548124 0.695439
vn -0.468140 0.826439 0.312801
vn -0.816085 -0.191480 0.545290
vn -0.816085 0.191480 0.545290
vn -0.468140 -0.826438 0.312801
vn -0.695439 0.548124 0.464677
vn -0.695439 -0.548124 0.464677
vn -0.194944 -0.980048 -0.038777
vn -0.194944 0.980048 -0.038777
vn -0.165265 -0.980048 -0.110427
vn -0.165265 0.980048 -0.110427
vn -0.110427 -0.980048 -0.165265
vn -0.110427 0.980048 -0.165265
vn -0.038777 -0.980048 -0.194944
vn -0.038777 0.980048 -0.194944
vn 0.038777 -0.980048 -0.194944
vn 0.038777 0.980048 -0.194944
vn 0.110427 -0.980048 -0.165265
vn 0.110427 0.980048 -0.165265
vn 0.165265 -0.980048 -0.110427
vn 0.165265 0.980048 -0.110427
vn 0.194944 -0.980048 -0.038777
vn 0.194944 0.980048 -0.038777
vn 0.194944 -0.980048 0.038777
vn 0.194944 0.980048 0.038777
vn 0.165265 -0.980048 0.110427
vn 0.165265 0.980048 0.110427
vn 0.110427 -0.980048 0.165265
vn 0.110427 0.980048 0.165265
vn 0.038777 -0.980048 0.194944
vn 0.038777 0.980048 0.194944
vn -0.038777 -0.980048 0.194944
vn -0.038777 0.980047 0.194944
vn -0.110427 -0.980048 0.165265
vn -0.110427 0.980048 0.165265
vn -0.165265 -0.980048 0.110427
vn -0.165265 0.980048 0.110427
vn -0.552208 0.826439 0.109841
vn -0.962637 -0.191481 0.191482
vn -0.194944 -0.980048 0.038777
vn -0.194944 0.980048 0.038777
vn -0.962637 0.191481 0.191482
vn -0.552209 -0.826438 0.109842
vn -0.820326 0.548124 0.163174
vn -0.820326 -0.548124 0.163174
vn -0.552209 -0.826439 -0.109841
vn -0.962637 0.191480 -0.191481
vn -0.816084 -0.191480 -0.545290
vn -0.816085 0.191480 -0.545290
vn -0.312801 0.826438 -0.468140
vn -0.109841 0.826439 -0.552209
vn 0.464677 -0.548124 -0.695439
vn 0.552209 0.826438 -0.109841
vn 0.962637 -0.191480 0.191481
vn 0.962637 0.191480 0.191480
vn 0.312801 0.826438 0.468140
vn -0.109841 0.826439 0.552209
vn -0.191480 -0.191480 0.962637
vn -0.191481 0.191480 0.962637
vn -0.464677 0.548124 0.695439
vn -0.464678 -0.548124 0.695439
vn -0.816085 -0.191481 0.545290
vn -0.816085 0.191481 0.545290
vn -0.695439 0.548123 0.464678
vn -0.552209 0.826438 0.109842
vn -0.962637 -0.191480 0.191482
vn -0.962637 0.191480 0.191482
s off
f 7/1/1 6/2/1 14/3/1
f 3/4/2 2/5/2 10/6/2
f 6/2/3 5/7/3 13/8/3
f 2/5/4 1/9/4 9/10/4
f 5/7/5 4/11/5 12/12/5
f 4/11/6 3/4/6 11/13/6
f 9/14/7 8/15/7 16/16/7
f 12/17/8 11/18/8 19/19/8
f 11/18/9 10/20/9 18/21/9
f 14/22/10 13/23/10 21/24/10
f 10/20/11 9/14/11 17/25/11
f 13/23/12 12/17/12 20/26/12
f 16/16/13 15/27/13 23/28/13
f 19/19/14 18/21/14 26/29/14
f 18/21/15 17/25/15 25/30/15
f 21/24/16 20/26/16 28/31/16
f 17/25/17 16/16/17 24/32/17
f 20/26/18 19/19/18 27/33/18
f 23/28/19 22/34/19 30/35/19
f 26/29/20 25/30/20 33/36/20
f 25/30/21 24/32/21 32/37/21
f 28/31/22 27/33/22 35/38/22
f 24/32/23 23/28/23 31/39/23
f 27/33/24 26/29/24 34/40/24
f 30/35/25 29/41/25 37/42/25
f 33/36/26 32/37/26 40/43/26
f 32/37/27 31/39/27 39/44/27
f 35/38/28 34/40/28 42/45/28
f 31/39/29 30/35/29 38/46/29
f 34/40/30 33/36/30 41/47/30
f 38/46/31 37/42/31 44/48/31
f 41/47/32 40/43/32 47/49/32
f 40/43/33 39/44/33 46/50/33
f 43/51/34 42/45/34 49/52/34
f 39/44/35 38/46/35 45/53/35
f 42/45/36 41/47/36 48/54/36
f 45/53/37 44/48/37 51/55/37
f 48/54/38 47/49/38 54/56/38
f 47/49/39 46/50/39 53/57/39
f 50/58/40 49/52/40 56/59/40
f 46/50/41 45/53/41 52/60/41
f 49/52/42 48/54/42 55/61/42
f 52/60/43 51/55/43 58/62/43
f 55/61/44 54/56/44 61/63/44
f 54/56/45 53/57/45 60/64/45
f 57/65/46 56/59/46 63/66/46
f 53/57/47 52/60/47 59/67/47
f 56/59/48 55/61/48 62/68/48
f 59/67/49 58/62/49 65/69/49
f 62/68/50 61/63/50 68/70/50
f 61/63/51 60/64/51 67/71/51
f 64/72/52 63/66/52 70/73/52
f 60/64/53 59/67/53 66/74/53
f 63/66/54 62/68/54 69/75/54
f 66/74/55 65/69/55 72/76/55
f 69/75/56 68/70/56 75/77/56
f 68/70/57 67/71/57 74/78/57
f 71/79/58 70/73/58 77/80/58
f 67/71/59 66/74/59 73/81/59
f 70/73/60 69/75/60 76/82/60
f 73/81/61 72/76/61 79/83/61
f 76/82/62 75/77/62 82/84/62
f 75/77/63 74/78/63 81/85/63
f 78/86/64 77/80/64 84/87/64
f 74/78/65 73/81/65 80/88/65
f 77/80/66 76/82/66 83/89/66
f 80/88/67 79/83/67 86/90/67
f 83/89/68 82/84/68 89/91/68
f 82/84/69 81/85/69 88/92/69
f 85/93/70 84/87/70 91/94/70
f 81/85/71 80/88/71 87/95/71
f 84/87/72 83/89/72 90/96/72
f 87/95/73 86/90/73 94/97/73
f 90/96/74 89/91/74 97/98/74
f 89/91/75 88/92/75 96/99/75
f 92/100/76 91/94/76 99/101/76
f 88/92/77 87/95/77 95/102/77
f 91/94/78 90/96/78 98/103/78
f 94/97/79 93/104/79 102/105/79
f 97/98/80 96/99/80 105/106/80
f 96/99/81 95/102/81 104/107/81
f 99/101/82 98/103/82 107/108/82
f 95/102/83 94/97/83 103/109/83
f 98/103/84 97/98/84 106/110/84
f 102/105/85 101/111/85 109/112/85
f 105/106/86 104/107/86 112/113/86
f 104/107/87 103/109/87 111/114/87
f 107/108/88 106/110/88 114/115/88
f 103/109/89 102/105/89 110/116/89
f 106/110/90 105/106/90 113/117/90
f 100/118/91 7/119/91 14/22/91
f 1/9/92 36/120/92 8/121/92
f 100/118/93 14/22/93 21/24/93
f 8/15/94 36/120/94 15/27/94
f 100/118/95 21/24/95 28/31/95
f 15/27/96 36/120/96 22/34/96
f 100/118/97 28/31/97 35/38/97
f 22/34/98 36/120/98 29/41/98
f 100/118/99 35/38/99 43/51/99
f 29/41/100 36/120/100 37/42/100
f 100/118/101 43/51/101 50/58/101
f 37/42/102 36/120/102 44/48/102
f 100/118/103 50/58/103 57/65/103
f 44/48/104 36/120/104 51/55/104
f 100/118/105 57/65/105 64/72/105
f 51/55/106 36/120/106 58/62/106
f 100/118/107 64/72/107 71/79/107
f 58/62/108 36/120/108 65/69/108
f 100/118/109 71/79/109 78/122/109
f 65/69/110 36/120/110 72/76/110
f 100/118/111 78/122/111 85/123/111
f 72/76/112 36/120/112 79/83/112
f 100/118/113 85/123/113 92/124/113
f 79/83/114 36/120/114 86/90/114
f 100/118/115 92/124/115 99/125/115
f 86/90/116 36/120/116 93/104/116
f 100/118/117 99/125/117 107/126/117
f 93/104/118 36/120/118 101/111/118
f 100/118/119 107/126/119 114/127/119
f 101/111/120 36/120/120 108/128/120
f 109/112/121 108/128/121 2/5/121
f 112/113/122 111/114/122 5/7/122
f 100/118/123 114/127/123 7/119/123
f 108/128/124 36/120/124 1/9/124
f 111/114/125 110/116/125 4/11/125
f 114/115/126 113/117/126 6/2/126
f 110/116/127 109/112/127 3/4/127
f 113/117/128 112/113/128 5/7/128
f 6/2/129 13/8/129 14/3/129
f 2/5/2 9/10/2 10/6/2
f 5/7/3 12/12/3 13/8/3
f 1/9/4 8/121/4 9/10/4
f 4/11/5 11/13/5 12/12/5
f 3/4/130 10/6/130 11/13/130
f 8/15/7 15/27/7 16/16/7
f 11/18/131 18/21/131 19/19/131
f 10/20/132 17/25/132 18/21/132
f 13/23/10 20/26/10 21/24/10
f 9/14/11 16/16/11 17/25/11
f 12/17/12 19/19/12 20/26/12
f 15/27/133 22/34/133 23/28/133
f 18/21/14 25/30/14 26/29/14
f 17/25/15 24/32/15 25/30/15
f 20/26/16 27/33/16 28/31/16
f 16/16/17 23/28/17 24/32/17
f 19/19/18 26/29/18 27/33/18
f 22/34/134 29/41/134 30/35/134
f 25/30/20 32/37/20 33/36/20
f 24/32/21 31/39/21 32/37/21
f 27/33/22 34/40/22 35/38/22
f 23/28/23 30/35/23 31/39/23
f 26/29/24 33/36/24 34/40/24
f 38/46/25 30/35/25 37/42/25
f 41/47/26 33/36/26 40/43/26
f 40/43/27 32/37/27 39/44/27
f 43/51/28 35/38/28 42/45/28
f 39/44/29 31/39/29 38/46/29
f 42/45/30 34/40/30 41/47/30
f 45/53/31 38/46/31 44/48/31
f 48/54/32 41/47/32 47/49/32
f 47/49/33 40/43/33 46/50/33
f 50/58/34 43/51/34 49/52/34
f 46/50/35 39/44/35 45/53/35
f 49/52/135 42/45/135 48/54/135
f 52/60/37 45/53/37 51/55/37
f 55/61/38 48/54/38 54/56/38
f 54/56/39 47/49/39 53/57/39
f 57/65/40 50/58/40 56/59/40
f 53/57/41 46/50/41 52/60/41
f 56/59/42 49/52/42 55/61/42
f 59/67/136 52/60/136 58/62/136
f 62/68/44 55/61/44 61/63/44
f 61/63/45 54/56/45 60/64/45
f 64/72/46 57/65/46 63/66/46
f 60/64/47 53/57/47 59/67/47
f 63/66/48 56/59/48 62/68/48
f 66/74/49 59/67/49 65/69/49
f 69/75/137 62/68/137 68/70/137
f 68/70/138 61/63/138 67/71/138
f 71/79/52 64/72/52 70/73/52
f 67/71/53 60/64/53 66/74/53
f 70/73/54 63/66/54 69/75/54
f 73/81/55 66/74/55 72/76/55
f 76/82/56 69/75/56 75/77/56
f 75/77/57 68/70/57 74/78/57
f 78/86/58 71/79/58 77/80/58
f 74/78/59 67/71/59 73/81/59
f 77/80/60 70/73/60 76/82/60
f 80/88/139 73/81/139 79/83/139
f 83/89/62 76/82/62 82/84/62
f 82/84/63 75/77/63 81/85/63
f 85/93/64 78/86/64 84/87/64
f 81/85/65 74/78/65 80/88/65
f 84/87/66 77/80/66 83/89/66
f 87/95/67 80/88/67 86/90/67
f 90/96/68 83/89/68 89/91/68
f 89/91/69 82/84/69 88/92/69
f 92/100/70 85/93/70 91/94/70
f 88/92/71 81/85/71 87/95/71
f 91/94/72 84/87/72 90/96/72
f 86/90/140 93/104/140 94/97/140
f 89/91/141 96/99/141 97/98/141
f 88/92/142 95/102/142 96/99/142
f 91/94/76 98/103/76 99/101/76
f 87/95/77 94/97/77 95/102/77
f 90/96/78 97/98/78 98/103/78
f 93/104/79 101/111/79 102/105/79
f 96/99/80 104/107/80 105/106/80
f 95/102/81 103/109/81 104/107/81
f 98/103/82 106/110/82 107/108/82
f 94/97/143 102/105/143 103/109/143
f 97/98/144 105/106/144 106/110/144
f 101/111/85 108/128/85 109/112/85
f 104/107/145 111/114/145 112/113/145
f 103/109/146 110/116/146 111/114/146
f 106/110/88 113/117/88 114/115/88
f 102/105/147 109/112/147 110/116/147
f 105/106/90 112/113/90 113/117/90
f 108/128/148 1/9/148 2/5/148
f 111/114/149 4/11/149 5/7/149
f 110/116/150 3/4/150 4/11/150
f 7/1/126 114/115/126 6/2/126
f 109/112/127 2/5/127 3/4/127
f 6/2/128 113/117/128 5/7/128
