# This file uses centimeters as units for non-parametric coordinates.

mtllib vine_04.mtl
g default
v 2.968882 -0.029105 -1.018489
v 2.967998 0.154268 -1.142514
v 2.777256 0.150059 -1.089952
v 2.693099 -0.035122 -0.967276
v 2.587683 0.144652 -1.135085
v 2.588537 -0.038732 -1.011039
v 2.397068 0.142008 -1.096029
v 2.532404 -0.038516 -0.969848
v 2.207634 0.138182 -1.154663
v 2.208490 -0.045198 -1.030617
v 2.973022 -0.490633 -0.873564
v 2.693542 -0.496716 -0.822414
v 2.592707 -0.500252 -0.866136
v 2.417917 -0.502548 -0.826829
v 2.212650 -0.506721 -0.885714
v 2.979198 -0.934167 -0.902372
v 2.788615 -0.951448 -0.849843
v 2.598915 -0.946860 -0.895377
v 2.566877 -0.956140 -0.853367
v 2.218826 -0.950252 -0.914521
v 2.985182 -1.286201 -1.046193
v 2.794590 -1.303484 -0.993664
v 2.604898 -1.298884 -1.039218
v 2.414406 -1.311518 -0.999735
v 2.224809 -1.302288 -1.058345
vt 0.410802 0.079054
vt 0.410802 0.010443
vt 0.522334 0.002348
vt 0.572229 0.070960
vt 0.633865 0.009209
vt 0.633865 0.077821
vt 0.745396 0.002348
vt 0.666484 0.070960
vt 0.856928 0.010443
vt 0.856928 0.079054
vt 0.410802 0.276485
vt 0.574430 0.268390
vt 0.633865 0.275252
vt 0.736124 0.268390
vt 0.856928 0.276485
vt 0.410802 0.486867
vt 0.522334 0.484940
vt 0.633865 0.487098
vt 0.652409 0.484940
vt 0.856928 0.486867
vt 0.410802 0.679364
vt 0.522334 0.677437
vt 0.633865 0.679673
vt 0.745396 0.677437
vt 0.856928 0.679364
vn 0.174567 0.520173 0.836030
vn 0.174567 0.520173 0.836030
vn 0.174567 0.520173 0.836030
vn 0.174567 0.520173 0.836030
vn -0.134152 0.371473 0.918701
vn 0.070288 0.466438 0.881757
vn -0.020781 0.496052 0.868044
vn 0.120123 0.372642 0.920168
vn 0.120123 0.372642 0.920168
vn -0.020781 0.496052 0.868044
vn -0.141001 0.428245 0.892594
vn 0.285352 0.377485 0.880954
vn 0.285352 0.377485 0.880954
vn -0.141001 0.428245 0.892594
vn -0.283118 0.474047 0.833741
vn -0.185988 0.358286 0.914899
vn 0.188286 -0.001879 0.982112
vn 0.176628 0.363403 0.914735
vn -0.134152 0.371473 0.918701
vn -0.126174 -0.008324 0.991973
vn -0.126174 -0.008324 0.991973
vn -0.134152 0.371473 0.918701
vn 0.120123 0.372642 0.920168
vn -0.098165 -0.009951 0.995121
vn -0.098165 -0.009951 0.995121
vn 0.120123 0.372642 0.920168
vn 0.285352 0.377485 0.880954
vn -0.064749 -0.001028 0.997901
vn -0.064749 -0.001028 0.997901
vn 0.285352 0.377485 0.880954
vn -0.185988 0.358286 0.914899
vn -0.282371 -0.010628 0.959246
vn 0.280889 -0.233219 0.930973
vn 0.188286 -0.001879 0.982112
vn -0.126174 -0.008324 0.991973
vn 0.038604 -0.239726 0.970073
vn 0.038604 -0.239726 0.970073
vn -0.126174 -0.008324 0.991973
vn -0.098165 -0.009951 0.995121
vn 0.345413 -0.226885 0.910611
vn 0.345413 -0.226885 0.910611
vn -0.098165 -0.009951 0.995121
vn -0.064749 -0.001028 0.997901
vn 0.447856 -0.218376 0.867028
vn 0.447856 -0.218376 0.867028
vn -0.064749 -0.001028 0.997901
vn -0.282371 -0.010628 0.959246
vn -0.172120 -0.248280 0.953274
vn 0.280849 -0.254874 0.925291
vn 0.280889 -0.233219 0.930973
vn 0.038604 -0.239726 0.970073
vn 0.024942 -0.270781 0.962318
vn 0.024942 -0.270781 0.962318
vn 0.038604 -0.239726 0.970073
vn 0.345413 -0.226885 0.910611
vn -0.008884 -0.271527 0.962390
vn -0.008884 -0.271527 0.962390
vn 0.345413 -0.226885 0.910611
vn 0.447856 -0.218376 0.867028
vn -0.098712 -0.242017 0.965238
vn -0.098712 -0.242017 0.965238
vn 0.447856 -0.218376 0.867028
vn -0.172120 -0.248280 0.953274
vn -0.297846 -0.264861 0.917135
s off
g vine_04
usemtl lambert6SG
f 1/1/1 2/2/2 3/3/3 4/4/4
f 4/4/5 3/3/6 5/5/7 6/6/8
f 6/6/9 5/5/10 7/7/11 8/8/12
f 8/8/13 7/7/14 9/9/15 10/10/16
f 11/11/17 1/1/18 4/4/19 12/12/20
f 12/12/21 4/4/22 6/6/23 13/13/24
f 13/13/25 6/6/26 8/8/27 14/14/28
f 14/14/29 8/8/30 10/10/31 15/15/32
f 16/16/33 11/11/34 12/12/35 17/17/36
f 17/17/37 12/12/38 13/13/39 18/18/40
f 18/18/41 13/13/42 14/14/43 19/19/44
f 19/19/45 14/14/46 15/15/47 20/20/48
f 21/21/49 16/16/50 17/17/51 22/22/52
f 22/22/53 17/17/54 18/18/55 23/23/56
f 23/23/57 18/18/58 19/19/59 24/24/60
f 24/24/61 19/19/62 20/20/63 25/25/64
