# This file uses centimeters as units for non-parametric coordinates.

mtllib vine_05.mtl
g default
v -2.839794 -1.284309 -0.876166
v -2.839610 -1.493884 -0.968015
v -2.654176 -1.494269 -0.904680
v -2.570530 -1.285917 -0.809938
v -2.465281 -1.496987 -0.941469
v -2.465460 -1.287433 -0.849625
v -2.279387 -1.499656 -0.891668
v -2.412147 -1.288198 -0.804430
v -2.090065 -1.504648 -0.941974
v -2.090245 -1.295071 -0.850124
v -2.834413 -0.763149 -0.816000
v -2.561471 -0.764809 -0.749663
v -2.460073 -0.766267 -0.789482
v -2.289801 -0.768707 -0.740212
v -2.084864 -0.773912 -0.789958
v -2.833456 -0.282418 -0.879876
v -2.647704 -0.268221 -0.819084
v -2.459034 -0.282117 -0.854401
v -2.429136 -0.271366 -0.811476
v -2.083910 -0.293182 -0.853835
v -2.810333 0.119447 -1.144199
v -2.624586 0.133639 -1.083387
v -2.435917 0.119743 -1.118700
v -2.249822 0.128269 -1.070376
v -2.060788 0.108685 -1.118157
vt 0.028725 0.086988
vt 0.021067 0.019710
vt 0.105200 0.015856
vt 0.149524 0.082170
vt 0.185450 0.015572
vt 0.193108 0.082850
vt 0.269017 0.011548
vt 0.218764 0.080356
vt 0.348703 0.011095
vt 0.356361 0.078372
vt 0.041324 0.261615
vt 0.163711 0.256797
vt 0.205707 0.257534
vt 0.282463 0.253680
vt 0.368924 0.253000
vt 0.044253 0.426777
vt 0.128562 0.428024
vt 0.208636 0.423829
vt 0.224128 0.425473
vt 0.371854 0.418162
vt 0.045982 0.576069
vt 0.130326 0.577316
vt 0.210400 0.573178
vt 0.294144 0.573008
vt 0.373618 0.567454
vn -0.258078 -0.350427 0.900331
vn -0.258078 -0.350427 0.900331
vn -0.258078 -0.350427 0.900331
vn -0.258078 -0.350427 0.900331
vn 0.077541 -0.275327 0.958218
vn -0.128033 -0.367453 0.921187
vn -0.037565 -0.401168 0.915234
vn -0.176292 -0.268631 0.946973
vn -0.176292 -0.268631 0.946973
vn -0.037565 -0.401168 0.915234
vn 0.083599 -0.334708 0.938606
vn -0.339594 -0.272751 0.900157
vn -0.339594 -0.272751 0.900157
vn 0.083599 -0.334708 0.938606
vn 0.226675 -0.390746 0.892152
vn 0.129967 -0.264102 0.955698
vn -0.234110 0.112136 0.965721
vn -0.232183 -0.258376 0.937728
vn 0.077541 -0.275327 0.958218
vn 0.079546 0.110205 0.990721
vn 0.079546 0.110205 0.990721
vn 0.077541 -0.275327 0.958218
vn -0.176292 -0.268631 0.946973
vn 0.051544 0.113036 0.992253
vn 0.051544 0.113036 0.992253
vn -0.176292 -0.268631 0.946973
vn -0.339594 -0.272751 0.900157
vn 0.017737 0.105374 0.994275
vn 0.017737 0.105374 0.994275
vn -0.339594 -0.272751 0.900157
vn 0.129967 -0.264102 0.955698
vn 0.237111 0.104283 0.965869
vn -0.315962 0.339451 0.885969
vn -0.234110 0.112136 0.965721
vn 0.079546 0.110205 0.990721
vn -0.075830 0.342776 0.936351
vn -0.075830 0.342776 0.936351
vn 0.079546 0.110205 0.990721
vn 0.051544 0.113036 0.992253
vn -0.379698 0.332944 0.863121
vn -0.379698 0.332944 0.863121
vn 0.051544 0.113036 0.992253
vn 0.017737 0.105374 0.994275
vn -0.480223 0.322910 0.815546
vn -0.480223 0.322910 0.815546
vn 0.017737 0.105374 0.994275
vn 0.237111 0.104283 0.965869
vn 0.135664 0.343159 0.929428
vn -0.314929 0.360304 0.878066
vn -0.315962 0.339451 0.885969
vn -0.075830 0.342776 0.936351
vn -0.060596 0.372379 0.926101
vn -0.060596 0.372379 0.926101
vn -0.075830 0.342776 0.936351
vn -0.379698 0.332944 0.863121
vn -0.026926 0.372123 0.927793
vn -0.026926 0.372123 0.927793
vn -0.379698 0.332944 0.863121
vn -0.480223 0.322910 0.815546
vn 0.061610 0.340352 0.938277
vn 0.061610 0.340352 0.938277
vn -0.480223 0.322910 0.815546
vn 0.135664 0.343159 0.929428
vn 0.263452 0.352062 0.898134
s off
g vine_05
usemtl lambert6SG
f 1/1/1 2/2/2 3/3/3 4/4/4
f 4/4/5 3/3/6 5/5/7 6/6/8
f 6/6/9 5/5/10 7/7/11 8/8/12
f 8/8/13 7/7/14 9/9/15 10/10/16
f 11/11/17 1/1/18 4/4/19 12/12/20
f 12/12/21 4/4/22 6/6/23 13/13/24
f 13/13/25 6/6/26 8/8/27 14/14/28
f 14/14/29 8/8/30 10/10/31 15/15/32
f 16/16/33 11/11/34 12/12/35 17/17/36
f 17/17/37 12/12/38 13/13/39 18/18/40
f 18/18/41 13/13/42 14/14/43 19/19/44
f 19/19/45 14/14/46 15/15/47 20/20/48
f 21/21/49 16/16/50 17/17/51 22/22/52
f 22/22/53 17/17/54 18/18/55 23/23/56
f 23/23/57 18/18/58 19/19/59 24/24/60
f 24/24/61 19/19/62 20/20/63 25/25/64
