# This file uses centimeters as units for non-parametric coordinates.

mtllib vine_02.mtl
g default
v 2.110400 -0.127998 -1.032810
v 2.109360 -0.059889 -1.085576
v 1.986178 -0.057959 -1.065696
v 1.932447 -0.127159 -1.013422
v 1.864347 -0.064365 -1.082602
v 1.865369 -0.132473 -1.029844
v 1.741316 -0.062845 -1.067867
v 1.828950 -0.129227 -1.014339
v 1.619632 -0.069658 -1.089926
v 1.620667 -0.137759 -1.037158
v 2.115245 -0.312786 -0.963066
v 1.934915 -0.312001 -0.943703
v 1.870217 -0.317260 -0.960100
v 1.757393 -0.315541 -0.945278
v 1.625516 -0.322554 -0.967417
v 2.122646 -0.506735 -0.958742
v 1.999646 -0.510371 -0.938447
v 1.877673 -0.512557 -0.955839
v 1.856841 -0.513223 -0.939712
v 1.632917 -0.516503 -0.963093
v 2.129350 -0.665141 -1.002089
v 2.006367 -0.668782 -0.981796
v 1.884375 -0.670959 -0.999194
v 1.761501 -0.673660 -0.983965
v 1.639622 -0.674910 -1.006438
v 1.895287 -0.009106 -1.055517
v 1.890783 0.070402 -1.142475
v 1.723853 0.080257 -1.107818
v 1.653460 0.000322 -1.017557
v 1.556105 0.070244 -1.120829
v 1.560584 -0.009265 -1.033881
v 1.389016 0.078340 -1.093014
v 1.511932 -0.000492 -1.011299
v 1.221102 0.066569 -1.112879
v 1.225600 -0.012927 -1.025919
v 1.905107 -0.242030 -0.918582
v 1.660029 -0.232632 -0.880483
v 1.570408 -0.242188 -0.896946
v 1.417276 -0.234018 -0.869752
v 1.235426 -0.245862 -0.888987
v 1.913735 -0.502657 -0.867761
v 1.747032 -0.500213 -0.831250
v 1.579094 -0.504647 -0.845897
v 1.551752 -0.501333 -0.822615
v 1.244053 -0.506489 -0.838166
v 1.918385 -0.726496 -0.889420
v 1.751705 -0.724059 -0.852914
v 1.583741 -0.728483 -0.867569
v 1.416862 -0.725966 -0.838108
v 1.248704 -0.730328 -0.859823
v 2.073652 -0.679570 -1.001456
v 2.068008 -0.607629 -1.058492
v 1.938705 -0.604956 -1.026554
v 1.886034 -0.677923 -0.965214
v 1.807595 -0.611715 -1.033744
v 1.813219 -0.683656 -0.976716
v 1.677999 -0.609555 -1.007286
v 1.775840 -0.679870 -0.957070
v 1.546593 -0.616824 -1.019966
v 1.552231 -0.688756 -0.962927
v 2.084667 -0.875821 -0.924987
v 1.894516 -0.874226 -0.888563
v 1.824236 -0.879905 -0.900246
v 1.705508 -0.877557 -0.874595
v 1.563250 -0.885014 -0.886461
v 2.092640 -1.082803 -0.918202
v 1.963558 -1.086065 -0.885756
v 1.832260 -1.088327 -0.893514
v 1.811513 -1.088749 -0.874518
v 1.571223 -1.091996 -0.879677
v 2.095734 -1.252531 -0.962587
v 1.966671 -1.255799 -0.930146
v 1.835352 -1.258052 -0.937907
v 1.705961 -1.260390 -0.910876
v 1.574318 -1.261726 -0.924061
v 1.878382 -1.132560 -0.975281
v 1.874076 -1.069925 -1.006668
v 1.775403 -1.072909 -0.982393
v 1.735209 -1.136981 -0.947951
v 1.675352 -1.076837 -0.988818
v 1.679644 -1.139470 -0.957437
v 1.576457 -1.079349 -0.968717
v 1.651120 -1.139705 -0.942171
v 1.476180 -1.082801 -0.979323
v 1.480483 -1.145430 -0.947932
v 1.886788 -1.291084 -0.948763
v 1.741683 -1.295573 -0.921305
v 1.688051 -1.297994 -0.930919
v 1.597449 -1.300240 -0.911391
v 1.488891 -1.303960 -0.921418
v 1.892872 -1.446758 -0.975973
v 1.794369 -1.454255 -0.952244
v 1.694174 -1.454735 -0.958392
v 1.678342 -1.458013 -0.944268
v 1.494975 -1.459634 -0.948628
v 1.895233 -1.566624 -1.035597
v 1.796744 -1.574124 -1.011873
v 1.696534 -1.574597 -1.018022
v 1.597795 -1.580559 -0.998194
v 1.497337 -1.579501 -1.008252
v 1.780029 -0.677953 -0.975281
v 1.775722 -0.615318 -1.006668
v 1.677050 -0.618302 -0.982393
v 1.636856 -0.682374 -0.947951
v 1.576999 -0.622230 -0.988818
v 1.581291 -0.684863 -0.957437
v 1.478104 -0.624742 -0.968717
v 1.552767 -0.685099 -0.942171
v 1.377826 -0.628195 -0.979323
v 1.382129 -0.690823 -0.947932
v 1.788434 -0.836478 -0.948763
v 1.643329 -0.840967 -0.921305
v 1.589698 -0.843387 -0.930919
v 1.499096 -0.845633 -0.911391
v 1.390538 -0.849353 -0.921418
v 1.794518 -0.992152 -0.975973
v 1.696016 -0.999649 -0.952244
v 1.595821 -1.000129 -0.958392
v 1.579989 -1.003406 -0.944268
v 1.396622 -1.005027 -0.948628
v 1.796880 -1.112018 -1.035597
v 1.698391 -1.119518 -1.011873
v 1.598181 -1.119990 -1.018022
v 1.499442 -1.125952 -0.998194
v 1.398984 -1.124894 -1.008252
vt 0.047736 0.638413
vt 0.047736 0.598978
vt 0.131761 0.594302
vt 0.169383 0.633737
vt 0.215821 0.598276
vt 0.215821 0.637712
vt 0.299846 0.594302
vt 0.240419 0.633737
vt 0.383905 0.598978
vt 0.383905 0.638413
vt 0.047736 0.751889
vt 0.170998 0.747213
vt 0.215821 0.751187
vt 0.292880 0.747213
vt 0.383905 0.751889
vt 0.047736 0.872768
vt 0.131761 0.871677
vt 0.215821 0.872924
vt 0.229819 0.871677
vt 0.383905 0.872768
vt 0.047736 0.983438
vt 0.131795 0.982308
vt 0.215821 0.983594
vt 0.299880 0.982308
vt 0.383905 0.983438
vt 0.047736 0.638413
vt 0.047736 0.598978
vt 0.131761 0.594302
vt 0.169383 0.633737
vt 0.215821 0.598276
vt 0.215821 0.637712
vt 0.299846 0.594302
vt 0.240419 0.633737
vt 0.383905 0.598978
vt 0.383905 0.638413
vt 0.047736 0.751889
vt 0.170998 0.747213
vt 0.215821 0.751187
vt 0.292880 0.747213
vt 0.383905 0.751889
vt 0.047736 0.872768
vt 0.131761 0.871677
vt 0.215821 0.872924
vt 0.229819 0.871677
vt 0.383905 0.872768
vt 0.047736 0.983438
vt 0.131795 0.982308
vt 0.215821 0.983594
vt 0.299880 0.982308
vt 0.383905 0.983438
vt 0.047736 0.638413
vt 0.047736 0.598978
vt 0.131761 0.594302
vt 0.169383 0.633737
vt 0.215821 0.598276
vt 0.215821 0.637712
vt 0.299846 0.594302
vt 0.240419 0.633737
vt 0.383905 0.598978
vt 0.383905 0.638413
vt 0.047736 0.751889
vt 0.170998 0.747213
vt 0.215821 0.751187
vt 0.292880 0.747213
vt 0.383905 0.751889
vt 0.047736 0.872768
vt 0.131761 0.871677
vt 0.215821 0.872924
vt 0.229819 0.871677
vt 0.383905 0.872768
vt 0.047736 0.983438
vt 0.131795 0.982308
vt 0.215821 0.983594
vt 0.299880 0.982308
vt 0.383905 0.983438
vt 0.047736 0.638413
vt 0.047736 0.598978
vt 0.131761 0.594302
vt 0.169383 0.633737
vt 0.215821 0.598276
vt 0.215821 0.637712
vt 0.299846 0.594302
vt 0.240419 0.633737
vt 0.383905 0.598978
vt 0.383905 0.638413
vt 0.047736 0.751889
vt 0.170998 0.747213
vt 0.215821 0.751187
vt 0.292880 0.747213
vt 0.383905 0.751889
vt 0.047736 0.872768
vt 0.131761 0.871677
vt 0.215821 0.872924
vt 0.229819 0.871677
vt 0.383905 0.872768
vt 0.047736 0.983438
vt 0.131795 0.982308
vt 0.215821 0.983594
vt 0.299880 0.982308
vt 0.383905 0.983438
vt 0.047736 0.638413
vt 0.047736 0.598978
vt 0.131761 0.594302
vt 0.169383 0.633737
vt 0.215821 0.598276
vt 0.215821 0.637712
vt 0.299846 0.594302
vt 0.240419 0.633737
vt 0.383905 0.598978
vt 0.383905 0.638413
vt 0.047736 0.751889
vt 0.170998 0.747213
vt 0.215821 0.751187
vt 0.292880 0.747213
vt 0.383905 0.751889
vt 0.047736 0.872768
vt 0.131761 0.871677
vt 0.215821 0.872924
vt 0.229819 0.871677
vt 0.383905 0.872768
vt 0.047736 0.983438
vt 0.131795 0.982308
vt 0.215821 0.983594
vt 0.299880 0.982308
vt 0.383905 0.983438
vn 0.110851 0.576666 0.809425
vn 0.110851 0.576666 0.809425
vn 0.110851 0.576666 0.809425
vn 0.110851 0.576666 0.809425
vn -0.141352 0.494798 0.857435
vn 0.062554 0.585151 0.808508
vn -0.028594 0.611907 0.790412
vn 0.112784 0.497890 0.859875
vn 0.112784 0.497890 0.859875
vn -0.028594 0.611907 0.790412
vn -0.148501 0.547262 0.823682
vn 0.278230 0.498460 0.821051
vn 0.278230 0.498460 0.821051
vn -0.148501 0.547262 0.823682
vn -0.290567 0.583467 0.758378
vn -0.193149 0.480805 0.855289
vn 0.183028 0.136202 0.973627
vn 0.169408 0.488430 0.856001
vn -0.141352 0.494798 0.857435
vn -0.131399 0.129014 0.982899
vn -0.131399 0.129014 0.982899
vn -0.141352 0.494798 0.857435
vn 0.112784 0.497890 0.859875
vn -0.103424 0.127986 0.986369
vn -0.103424 0.127986 0.986369
vn 0.112784 0.497890 0.859875
vn 0.278230 0.498460 0.821051
vn -0.070024 0.137424 0.988034
vn -0.070024 0.137424 0.988034
vn 0.278230 0.498460 0.821051
vn -0.193149 0.480805 0.855289
vn -0.287454 0.121062 0.950113
vn 0.277331 -0.099339 0.955625
vn 0.183028 0.136202 0.973627
vn -0.131399 0.129014 0.982899
vn 0.035007 -0.102107 0.994157
vn 0.035007 -0.102107 0.994157
vn -0.131399 0.129014 0.982899
vn -0.103424 0.127986 0.986369
vn 0.341950 -0.095416 0.934861
vn 0.341950 -0.095416 0.934861
vn -0.103424 0.127986 0.986369
vn -0.070024 0.137424 0.988034
vn 0.444567 -0.092428 0.890964
vn 0.444567 -0.092428 0.890964
vn -0.070024 0.137424 0.988034
vn -0.287454 0.121062 0.950113
vn -0.175695 -0.114331 0.977783
vn 0.277525 -0.121563 0.952997
vn 0.277331 -0.099339 0.955625
vn 0.035007 -0.102107 0.994157
vn 0.021529 -0.133980 0.990750
vn 0.021529 -0.133980 0.990750
vn 0.035007 -0.102107 0.994157
vn 0.341950 -0.095416 0.934861
vn -0.012255 -0.134963 0.990775
vn -0.012255 -0.134963 0.990775
vn 0.341950 -0.095416 0.934861
vn 0.444567 -0.092428 0.890964
vn -0.102311 -0.105918 0.989098
vn -0.102311 -0.105918 0.989098
vn 0.444567 -0.092428 0.890964
vn -0.175695 -0.114331 0.977783
vn -0.301057 -0.136773 0.943747
vn 0.156195 0.704706 0.692093
vn 0.156195 0.704706 0.692093
vn 0.156195 0.704706 0.692093
vn 0.156195 0.704706 0.692093
vn -0.093754 0.636151 0.765847
vn 0.107973 0.713655 0.692126
vn 0.016199 0.738331 0.674244
vn 0.160187 0.635688 0.755143
vn 0.160187 0.635688 0.755143
vn 0.016199 0.738331 0.674244
vn -0.102274 0.682181 0.723995
vn 0.323419 0.627060 0.708658
vn 0.323419 0.627060 0.708658
vn -0.102274 0.682181 0.723995
vn -0.247262 0.708886 0.660562
vn -0.145686 0.622800 0.768698
vn 0.233742 0.297713 0.925598
vn 0.216472 0.624831 0.750151
vn -0.093754 0.636151 0.765847
vn -0.079835 0.297075 0.951511
vn -0.079835 0.297075 0.951511
vn -0.093754 0.636151 0.765847
vn 0.160187 0.635688 0.755143
vn -0.051726 0.296223 0.953717
vn -0.051726 0.296223 0.953717
vn 0.160187 0.635688 0.755143
vn 0.323419 0.627060 0.708658
vn -0.018221 0.305289 0.952085
vn -0.018221 0.305289 0.952085
vn 0.323419 0.627060 0.708658
vn -0.145686 0.622800 0.768698
vn -0.237418 0.286050 0.928336
vn 0.325403 0.061132 0.943597
vn 0.233742 0.297713 0.925598
vn -0.079835 0.297075 0.951511
vn 0.085367 0.068733 0.993976
vn 0.085367 0.068733 0.993976
vn -0.079835 0.297075 0.951511
vn -0.051726 0.296223 0.953717
vn 0.388895 0.060450 0.919297
vn 0.388895 0.060450 0.919297
vn -0.051726 0.296223 0.953717
vn -0.018221 0.305289 0.952085
vn 0.489138 0.054308 0.870514
vn 0.489138 0.054308 0.870514
vn -0.018221 0.305289 0.952085
vn -0.237418 0.286050 0.928336
vn -0.125976 0.057148 0.990386
vn 0.325312 0.038785 0.944811
vn 0.325403 0.061132 0.943597
vn 0.085367 0.068733 0.993976
vn 0.071517 0.036959 0.996754
vn 0.071517 0.036959 0.996754
vn 0.085367 0.068733 0.993976
vn 0.388895 0.060450 0.919297
vn 0.037773 0.036516 0.998619
vn 0.037773 0.036516 0.998619
vn 0.388895 0.060450 0.919297
vn 0.489138 0.054308 0.870514
vn -0.052052 0.066236 0.996445
vn -0.052052 0.066236 0.996445
vn 0.489138 0.054308 0.870514
vn -0.125976 0.057148 0.990386
vn -0.253070 0.031160 0.966946
vn 0.177871 0.587292 0.789589
vn 0.177871 0.587292 0.789589
vn 0.177871 0.587292 0.789589
vn 0.177871 0.587292 0.789589
vn -0.069636 0.506706 0.859302
vn 0.129674 0.595884 0.792532
vn 0.037383 0.622618 0.781632
vn 0.183843 0.509201 0.840783
vn 0.183843 0.509201 0.840783
vn 0.037383 0.622618 0.781632
vn -0.079467 0.558727 0.825536
vn 0.345534 0.508836 0.788475
vn 0.345534 0.508836 0.788475
vn -0.079467 0.558727 0.825536
vn -0.226377 0.594396 0.771652
vn -0.121453 0.492814 0.861617
vn 0.262719 0.148913 0.953312
vn 0.239943 0.499549 0.832393
vn -0.069636 0.506706 0.859302
vn -0.049888 0.142631 0.988518
vn -0.049888 0.142631 0.988518
vn -0.069636 0.506706 0.859302
vn 0.183843 0.509201 0.840783
vn -0.021724 0.141581 0.989688
vn -0.021724 0.141581 0.989688
vn 0.183843 0.509201 0.840783
vn 0.345534 0.508836 0.788475
vn 0.011714 0.150957 0.988471
vn 0.011714 0.150957 0.988471
vn 0.345534 0.508836 0.788475
vn -0.121453 0.492814 0.861617
vn -0.208122 0.134623 0.968794
vn 0.354901 -0.087083 0.930839
vn 0.262719 0.148913 0.953312
vn -0.049888 0.142631 0.988518
vn 0.116567 -0.088729 0.989212
vn 0.116567 -0.088729 0.989212
vn -0.049888 0.142631 0.988518
vn -0.021724 0.141581 0.989688
vn 0.417598 -0.083602 0.904778
vn 0.417598 -0.083602 0.904778
vn -0.021724 0.141581 0.989688
vn 0.011714 0.150957 0.988471
vn 0.516258 -0.081462 0.852550
vn 0.516258 -0.081462 0.852550
vn 0.011714 0.150957 0.988471
vn -0.208122 0.134623 0.968794
vn -0.094785 -0.100650 0.990397
vn 0.354848 -0.109341 0.928508
vn 0.354901 -0.087083 0.930839
vn 0.116567 -0.088729 0.989212
vn 0.102811 -0.120611 0.987362
vn 0.102811 -0.120611 0.987362
vn 0.116567 -0.088729 0.989212
vn 0.417598 -0.083602 0.904778
vn 0.069142 -0.121511 0.990179
vn 0.069142 -0.121511 0.990179
vn 0.417598 -0.083602 0.904778
vn 0.516258 -0.081462 0.852550
vn -0.020707 -0.092267 0.995519
vn -0.020707 -0.092267 0.995519
vn 0.516258 -0.081462 0.852550
vn -0.094785 -0.100650 0.990397
vn -0.222552 -0.123240 0.967100
vn 0.177872 0.413539 0.892943
vn 0.177872 0.413539 0.892943
vn 0.177872 0.413539 0.892943
vn 0.177872 0.413539 0.892943
vn -0.069636 0.320408 0.944717
vn 0.129674 0.421348 0.897580
vn 0.037383 0.449746 0.892374
vn 0.183843 0.326635 0.927099
vn 0.183843 0.326635 0.927099
vn 0.037383 0.449746 0.892374
vn -0.079467 0.378231 0.922294
vn 0.345533 0.336967 0.875820
vn 0.345533 0.336967 0.875820
vn -0.079467 0.378231 0.922294
vn -0.226377 0.424160 0.876836
vn -0.121453 0.306336 0.944144
vn 0.262719 -0.049046 0.963625
vn 0.239943 0.318901 0.916913
vn -0.069636 0.320408 0.944717
vn -0.049888 -0.062390 0.996804
vn -0.049888 -0.062390 0.996804
vn -0.069636 0.320408 0.944717
vn 0.183843 0.326635 0.927099
vn -0.021724 -0.063657 0.997735
vn -0.021724 -0.063657 0.997735
vn 0.183843 0.326635 0.927099
vn 0.345533 0.336967 0.875820
vn 0.011714 -0.054230 0.998460
vn 0.011714 -0.054230 0.998460
vn 0.345533 0.336967 0.875820
vn -0.121453 0.306336 0.944144
vn -0.208122 -0.066199 0.975860
vn 0.354901 -0.275469 0.893399
vn 0.262719 -0.049046 0.963625
vn -0.049888 -0.062390 0.996804
vn 0.116567 -0.289009 0.950203
vn 0.116567 -0.289009 0.950203
vn -0.049888 -0.062390 0.996804
vn -0.021724 -0.063657 0.997735
vn 0.417598 -0.266736 0.868599
vn 0.417598 -0.266736 0.868599
vn -0.021724 -0.063657 0.997735
vn 0.011714 -0.054230 0.998460
vn 0.516258 -0.253968 0.817911
vn 0.516258 -0.253968 0.817911
vn 0.011714 -0.054230 0.998460
vn -0.208122 -0.066199 0.975860
vn -0.094785 -0.300921 0.948927
vn 0.354848 -0.296782 0.886569
vn 0.354901 -0.275469 0.893399
vn 0.116567 -0.289009 0.950203
vn 0.102811 -0.319841 0.941877
vn 0.102811 -0.319841 0.941877
vn 0.116567 -0.289009 0.950203
vn 0.417598 -0.266736 0.868599
vn 0.069142 -0.321297 0.944451
vn 0.069142 -0.321297 0.944451
vn 0.417598 -0.266736 0.868599
vn 0.516258 -0.253968 0.817911
vn -0.020707 -0.293762 0.955654
vn -0.020707 -0.293762 0.955654
vn 0.516258 -0.253968 0.817911
vn -0.094785 -0.300921 0.948927
vn -0.222552 -0.318274 0.921505
vn 0.177871 0.413539 0.892943
vn 0.177871 0.413539 0.892943
vn 0.177871 0.413539 0.892943
vn 0.177871 0.413539 0.892943
vn -0.069636 0.320408 0.944717
vn 0.129674 0.421348 0.897580
vn 0.037383 0.449746 0.892374
vn 0.183843 0.326635 0.927099
vn 0.183843 0.326635 0.927099
vn 0.037383 0.449746 0.892374
vn -0.079467 0.378231 0.922294
vn 0.345533 0.336967 0.875820
vn 0.345533 0.336967 0.875820
vn -0.079467 0.378231 0.922294
vn -0.226377 0.424160 0.876836
vn -0.121453 0.306336 0.944144
vn 0.262719 -0.049046 0.963625
vn 0.239943 0.318901 0.916913
vn -0.069636 0.320408 0.944717
vn -0.049888 -0.062390 0.996804
vn -0.049888 -0.062390 0.996804
vn -0.069636 0.320408 0.944717
vn 0.183843 0.326635 0.927099
vn -0.021724 -0.063657 0.997735
vn -0.021724 -0.063657 0.997735
vn 0.183843 0.326635 0.927099
vn 0.345533 0.336967 0.875820
vn 0.011714 -0.054230 0.998460
vn 0.011714 -0.054230 0.998460
vn 0.345533 0.336967 0.875820
vn -0.121453 0.306336 0.944144
vn -0.208122 -0.066199 0.975860
vn 0.354901 -0.275469 0.893399
vn 0.262719 -0.049046 0.963625
vn -0.049888 -0.062390 0.996804
vn 0.116567 -0.289009 0.950203
vn 0.116567 -0.289009 0.950203
vn -0.049888 -0.062390 0.996804
vn -0.021724 -0.063657 0.997735
vn 0.417598 -0.266736 0.868599
vn 0.417598 -0.266736 0.868599
vn -0.021724 -0.063657 0.997735
vn 0.011714 -0.054230 0.998460
vn 0.516258 -0.253968 0.817911
vn 0.516258 -0.253968 0.817911
vn 0.011714 -0.054230 0.998460
vn -0.208122 -0.066199 0.975860
vn -0.094785 -0.300921 0.948927
vn 0.354848 -0.296782 0.886569
vn 0.354901 -0.275469 0.893399
vn 0.116567 -0.289009 0.950203
vn 0.102811 -0.319841 0.941877
vn 0.102811 -0.319841 0.941877
vn 0.116567 -0.289009 0.950203
vn 0.417598 -0.266736 0.868599
vn 0.069142 -0.321297 0.944451
vn 0.069142 -0.321297 0.944451
vn 0.417598 -0.266736 0.868599
vn 0.516258 -0.253968 0.817911
vn -0.020707 -0.293762 0.955654
vn -0.020707 -0.293762 0.955654
vn 0.516258 -0.253968 0.817911
vn -0.094785 -0.300921 0.948927
vn -0.222552 -0.318274 0.921505
s off
g vine_02
usemtl lambert6SG
f 1/1/1 2/2/2 3/3/3 4/4/4
f 4/4/5 3/3/6 5/5/7 6/6/8
f 6/6/9 5/5/10 7/7/11 8/8/12
f 8/8/13 7/7/14 9/9/15 10/10/16
f 11/11/17 1/1/18 4/4/19 12/12/20
f 12/12/21 4/4/22 6/6/23 13/13/24
f 13/13/25 6/6/26 8/8/27 14/14/28
f 14/14/29 8/8/30 10/10/31 15/15/32
f 16/16/33 11/11/34 12/12/35 17/17/36
f 17/17/37 12/12/38 13/13/39 18/18/40
f 18/18/41 13/13/42 14/14/43 19/19/44
f 19/19/45 14/14/46 15/15/47 20/20/48
f 21/21/49 16/16/50 17/17/51 22/22/52
f 22/22/53 17/17/54 18/18/55 23/23/56
f 23/23/57 18/18/58 19/19/59 24/24/60
f 24/24/61 19/19/62 20/20/63 25/25/64
f 26/26/65 27/27/66 28/28/67 29/29/68
f 29/29/69 28/28/70 30/30/71 31/31/72
f 31/31/73 30/30/74 32/32/75 33/33/76
f 33/33/77 32/32/78 34/34/79 35/35/80
f 36/36/81 26/26/82 29/29/83 37/37/84
f 37/37/85 29/29/86 31/31/87 38/38/88
f 38/38/89 31/31/90 33/33/91 39/39/92
f 39/39/93 33/33/94 35/35/95 40/40/96
f 41/41/97 36/36/98 37/37/99 42/42/100
f 42/42/101 37/37/102 38/38/103 43/43/104
f 43/43/105 38/38/106 39/39/107 44/44/108
f 44/44/109 39/39/110 40/40/111 45/45/112
f 46/46/113 41/41/114 42/42/115 47/47/116
f 47/47/117 42/42/118 43/43/119 48/48/120
f 48/48/121 43/43/122 44/44/123 49/49/124
f 49/49/125 44/44/126 45/45/127 50/50/128
f 51/51/129 52/52/130 53/53/131 54/54/132
f 54/54/133 53/53/134 55/55/135 56/56/136
f 56/56/137 55/55/138 57/57/139 58/58/140
f 58/58/141 57/57/142 59/59/143 60/60/144
f 61/61/145 51/51/146 54/54/147 62/62/148
f 62/62/149 54/54/150 56/56/151 63/63/152
f 63/63/153 56/56/154 58/58/155 64/64/156
f 64/64/157 58/58/158 60/60/159 65/65/160
f 66/66/161 61/61/162 62/62/163 67/67/164
f 67/67/165 62/62/166 63/63/167 68/68/168
f 68/68/169 63/63/170 64/64/171 69/69/172
f 69/69/173 64/64/174 65/65/175 70/70/176
f 71/71/177 66/66/178 67/67/179 72/72/180
f 72/72/181 67/67/182 68/68/183 73/73/184
f 73/73/185 68/68/186 69/69/187 74/74/188
f 74/74/189 69/69/190 70/70/191 75/75/192
f 76/76/193 77/77/194 78/78/195 79/79/196
f 79/79/197 78/78/198 80/80/199 81/81/200
f 81/81/201 80/80/202 82/82/203 83/83/204
f 83/83/205 82/82/206 84/84/207 85/85/208
f 86/86/209 76/76/210 79/79/211 87/87/212
f 87/87/213 79/79/214 81/81/215 88/88/216
f 88/88/217 81/81/218 83/83/219 89/89/220
f 89/89/221 83/83/222 85/85/223 90/90/224
f 91/91/225 86/86/226 87/87/227 92/92/228
f 92/92/229 87/87/230 88/88/231 93/93/232
f 93/93/233 88/88/234 89/89/235 94/94/236
f 94/94/237 89/89/238 90/90/239 95/95/240
f 96/96/241 91/91/242 92/92/243 97/97/244
f 97/97/245 92/92/246 93/93/247 98/98/248
f 98/98/249 93/93/250 94/94/251 99/99/252
f 99/99/253 94/94/254 95/95/255 100/100/256
f 101/101/257 102/102/258 103/103/259 104/104/260
f 104/104/261 103/103/262 105/105/263 106/106/264
f 106/106/265 105/105/266 107/107/267 108/108/268
f 108/108/269 107/107/270 109/109/271 110/110/272
f 111/111/273 101/101/274 104/104/275 112/112/276
f 112/112/277 104/104/278 106/106/279 113/113/280
f 113/113/281 106/106/282 108/108/283 114/114/284
f 114/114/285 108/108/286 110/110/287 115/115/288
f 116/116/289 111/111/290 112/112/291 117/117/292
f 117/117/293 112/112/294 113/113/295 118/118/296
f 118/118/297 113/113/298 114/114/299 119/119/300
f 119/119/301 114/114/302 115/115/303 120/120/304
f 121/121/305 116/116/306 117/117/307 122/122/308
f 122/122/309 117/117/310 118/118/311 123/123/312
f 123/123/313 118/118/314 119/119/315 124/124/316
f 124/124/317 119/119/318 120/120/319 125/125/320
