# This file uses centimeters as units for non-parametric coordinates.

mtllib RainbowStone_UVmapped.mtl
g default
v -0.041466 0.429359 -0.007211
v -2.247709 0.457483 0.070175
v -1.099329 0.630987 -0.189494
v -0.088374 0.227735 -0.215171
v -0.042825 0.446993 -0.212459
v -2.006787 0.788121 0.045425
v -0.094339 0.455824 -0.004106
v -1.175968 0.368496 -0.215283
v -0.441443 0.264514 0.016037
v -1.190592 0.344570 -0.189910
v -2.238359 0.478366 -0.215076
v -1.834903 0.732429 -0.214831
v -2.204025 0.818764 -0.212312
v -1.527598 0.403159 0.063057
v -1.040819 0.600386 0.029211
v -1.056169 0.559281 0.048114
v -1.265424 0.660144 0.055385
v -0.952742 0.319750 -0.214420
v -1.105356 0.607696 -0.215605
v -0.861412 0.567219 0.041898
v -0.615790 0.283004 -0.189030
v -1.605568 0.690875 0.066889
v -0.725168 0.315154 -0.215626
v -2.190614 0.817897 0.077648
v -0.063953 0.255099 -0.174458
v -2.252125 0.459919 -0.191981
v -0.079345 0.336931 -0.207654
v -1.625117 0.390704 -0.206105
v -2.162172 0.779707 0.085615
v -1.715301 0.428332 -0.215745
v -0.059927 0.414034 0.014640
v -1.942033 0.424542 -0.196239
v -1.875787 0.765669 -0.134352
v -0.378019 0.291875 0.024884
v -1.548734 0.709362 -0.210222
v -0.072784 0.226635 0.010416
v -1.792694 0.409559 -0.178370
v -1.673697 0.730505 0.046769
v -0.770464 0.551929 -0.215310
v -2.229831 0.469168 0.086417
v -2.248638 0.503690 0.048400
v -0.816760 0.582406 0.023001
v -0.124389 0.453339 -0.215979
v -1.041582 0.621344 -0.039881
vt 0.124980 0.072563
vt 0.199734 0.071984
vt 0.147968 0.188191
vt 0.202678 0.055633
vt 0.237616 0.164919
vt 0.118436 0.079733
vt 0.210090 0.056031
vt 0.120363 0.936646
vt 0.072852 0.874726
vt 0.137617 0.872097
vt 0.055826 0.932355
vt 0.096920 0.863457
vt 0.112705 0.944367
vt 0.062933 0.861905
vt 0.205268 0.852103
vt 0.159647 0.536302
vt 0.222668 0.622116
vt 0.208456 0.552764
vt 0.232387 0.610789
vt 0.143815 0.642127
vt 0.207427 0.870524
vt 0.237271 0.480120
vt 0.232838 0.554847
vt 0.136290 0.846330
vt 0.148452 0.534717
vt 0.217181 0.865752
vt 0.162270 0.390032
vt 0.241995 0.346009
vt 0.186150 0.281946
vt 0.251436 0.370657
vt 0.158120 0.300002
vt 0.248909 0.232999
vt 0.270467 0.189044
vt 0.380513 0.188039
vt 0.437949 0.306340
vt 0.372652 0.209870
vt 0.382163 0.185847
vt 0.443037 0.364744
vt 0.453050 0.392223
vt 0.439562 0.418955
vt 0.405439 0.550918
vt 0.296254 0.761218
vt 0.397839 0.628224
vt 0.333656 0.428389
vt 0.069235 0.522199
vt 0.368727 0.730707
vt 0.366050 0.211829
vt 0.386768 0.700675
vt 0.333386 0.897243
vt 0.267962 0.879853
vt 0.281560 0.778338
vt 0.249126 0.553644
vt 0.274540 0.184845
vt 0.285276 0.156180
vt 0.067568 0.862011
vt 0.071894 0.665577
vt 0.063516 0.594068
vt 0.070563 0.357927
vt 0.039561 0.203681
vt 0.451450 0.398566
vt 0.424953 0.277698
vt 0.442141 0.351644
vt 0.057855 0.516946
vt 0.415660 0.558985
vn 0.029697 -0.031490 0.999063
vn 0.092000 0.053408 0.994326
vn 0.017192 -0.142237 0.989683
vn 0.186105 0.971278 0.148270
vn 0.172728 0.980360 -0.095177
vn 0.173810 0.979982 0.097084
vn 0.341100 0.938702 -0.049906
vn -0.784644 -0.616222 -0.067857
vn -0.989674 0.134365 0.049907
vn -0.438981 0.398375 -0.805353
vn 0.989938 0.118398 0.077489
vn 0.973457 -0.219291 -0.065523
vn 0.022986 0.151085 -0.988253
vn 0.004920 0.019107 -0.999805
vn -0.028400 -0.631802 -0.774610
vn -0.757339 0.640928 0.125096
vn 0.036177 0.022914 0.999083
vn 0.017138 0.085667 -0.996176
vn -0.078874 -0.730634 -0.678198
vn -0.010497 -0.080570 -0.996694
vn -0.101307 -0.974348 -0.200957
vn -0.216113 -0.973016 0.080835
vn -0.106779 -0.993892 -0.027863
vn -0.093752 -0.966806 0.237692
vn 0.246992 -0.820806 0.515047
vn -0.063838 -0.032948 -0.997416
vn -0.006500 -0.023948 -0.999692
vn 0.020685 0.168486 -0.985487
vn 0.163172 0.977294 0.135175
vn 0.172003 0.982305 -0.074109
vn -0.017409 -0.085027 0.996227
vn 0.151696 0.733065 0.663026
vn 0.165528 0.967411 -0.191616
vn 0.170660 0.972698 0.157272
vn 0.038069 0.043835 0.998313
vn 0.048444 0.059805 0.997034
vn 0.175087 0.982283 0.066820
vn 0.170742 0.804402 0.569022
vn -0.002469 -0.054354 -0.998519
vn -0.110382 -0.988446 -0.103880
vn 0.023323 0.026813 0.999368
vn 0.399509 -0.077892 -0.913414
vn -0.102704 -0.989999 -0.096714
vn -0.102672 -0.989505 -0.101681
s 1
g RainbowStone_UVmapped:Rainbowstone_LP:Group56390
usemtl initialShadingGroup
f 34/51/1 31/26/2 14/44/3
f 7/15/4 3/16/5 42/17/6
f 5/10/7 3/16/5 7/15/4
f 26/1/8 41/2/9 13/3/10
f 1/8/11 25/9/12 5/10/7
f 39/20/13 43/24/14 4/55/15
f 24/5/16 13/3/10 41/2/9
f 31/26/2 20/19/17 14/44/3
f 5/10/7 7/15/4 1/21/11
f 7/15/4 20/19/17 31/26/2
f 19/25/18 18/57/19 8/45/20
f 26/34/8 32/35/21 2/36/22
f 2/36/22 10/41/23 9/42/24
f 25/9/12 1/8/11 36/11/25
f 8/64/20 18/43/19 10/41/23
f 10/41/23 18/43/19 9/42/24
f 11/37/26 30/61/27 32/35/21
f 11/59/26 13/3/10 30/58/27
f 13/3/10 12/31/28 30/58/27
f 5/10/7 39/20/13 3/16/5
f 13/3/10 6/32/29 33/29/30
f 12/31/28 13/3/10 33/29/30
f 14/44/3 2/36/22 9/42/24
f 24/5/16 2/4/22 40/7/31
f 17/22/32 35/27/33 38/28/34
f 14/44/3 17/22/32 22/30/35
f 16/52/36 17/22/32 14/44/3
f 42/17/6 20/19/17 7/15/4
f 44/18/37 3/16/5 17/22/32
f 15/23/38 17/22/32 16/52/36
f 39/20/13 4/55/15 23/56/39
f 21/46/40 4/49/15 9/42/24
f 19/25/18 30/58/27 12/31/28
f 35/27/33 19/25/18 12/31/28
f 14/44/3 20/19/17 16/52/36
f 15/23/38 16/52/36 20/19/17
f 18/43/19 21/46/40 9/42/24
f 23/48/39 4/49/15 21/46/40
f 17/22/32 38/28/34 22/30/35
f 29/33/41 24/53/16 40/47/31
f 19/25/18 23/56/39 18/57/19
f 18/43/19 23/48/39 21/46/40
f 6/54/29 24/53/16 29/33/41
f 6/32/29 13/3/10 24/5/16
f 27/12/42 25/9/12 4/14/15
f 4/14/15 25/9/12 36/11/25
f 26/1/8 13/3/10 11/6/26
f 26/34/8 11/37/26 32/35/21
f 25/9/12 27/12/42 5/10/7
f 39/20/13 5/10/7 43/24/14
f 28/40/43 30/60/27 10/41/23
f 28/40/43 10/41/23 2/36/22
f 38/28/34 29/33/41 22/30/35
f 29/33/41 40/47/31 22/30/35
f 30/58/27 8/45/20 10/63/23
f 30/58/27 19/25/18 8/45/20
f 36/11/25 1/8/11 31/13/2
f 1/21/11 7/15/4 31/26/2
f 28/40/43 2/36/22 37/38/44
f 30/39/27 28/40/43 37/38/44
f 35/27/33 12/31/28 33/29/30
f 35/27/33 33/29/30 38/28/34
f 34/51/1 14/44/3 9/42/24
f 31/26/2 34/51/1 36/50/25
f 35/27/33 3/16/5 19/25/18
f 3/16/5 35/27/33 17/22/32
f 9/42/24 4/49/15 36/50/25
f 36/50/25 34/51/1 9/42/24
f 32/35/21 37/38/44 2/36/22
f 32/35/21 30/62/27 37/38/44
f 33/29/30 6/32/29 38/28/34
f 6/32/29 29/33/41 38/28/34
f 3/16/5 39/20/13 19/25/18
f 19/25/18 39/20/13 23/56/39
f 40/47/31 2/36/22 14/44/3
f 22/30/35 40/47/31 14/44/3
f 41/2/9 2/4/22 24/5/16
f 2/4/22 41/2/9 26/1/8
f 42/17/6 3/16/5 44/18/37
f 20/19/17 42/17/6 15/23/38
f 43/24/14 27/12/42 4/55/15
f 5/10/7 27/12/42 43/24/14
f 42/17/6 44/18/37 15/23/38
f 15/23/38 44/18/37 17/22/32
