# This file uses centimeters as units for non-parametric coordinates.

mtllib Flooring_01_broken_02.mtl
g default
v 0.008660 0.096818 0.890875
v 0.252562 -0.002799 0.373173
v 0.499971 -0.002747 0.376641
v -0.473388 0.017456 -0.543229
v -0.002823 -0.002817 -0.999357
v -0.465295 -0.002796 -1.000000
v -0.000446 -0.002828 0.922939
v 0.499653 -0.002740 0.883686
v -0.454039 0.096881 0.751901
v -0.305008 0.049913 -0.993240
v 0.268302 -0.002804 1.004283
v -0.026995 0.096813 -0.689183
v 0.478841 -0.002789 -0.712167
v -0.499342 0.042621 0.624769
v 0.366765 0.089513 -0.729453
v 0.000248 -0.002801 0.442857
v 0.220416 0.096940 -0.903791
v -0.085444 0.053804 0.512462
v 0.267190 0.075605 -0.934889
v -0.000234 -0.002738 -0.594271
v 0.394831 0.096818 0.504225
v -0.066319 0.064246 -0.953888
v -0.499988 -0.002758 0.622611
v 0.107927 0.051158 -0.974131
v 0.499628 0.039666 0.905216
v -0.185954 0.017438 -0.513231
v 0.297077 0.096479 0.990452
v 0.306279 -0.001136 -0.596080
v 0.038369 0.095522 0.495083
v -0.022608 0.031928 -0.577594
v -0.220679 0.096792 0.669574
v -0.160334 -0.002730 -0.536787
v -0.250093 -0.002793 0.613863
v 0.456159 0.088421 0.481258
v -0.317315 0.064714 -0.582082
v 0.389523 -0.002778 -0.895585
v 0.022854 0.060670 0.927203
v -0.487423 -0.003561 -0.539204
v 0.316028 0.097002 -0.724903
v -0.025005 0.047582 0.456930
v -0.278690 0.096846 0.875681
v -0.397209 0.092268 -0.812359
v -0.142119 0.006411 -0.535493
v -0.280975 0.035390 0.910947
v -0.503030 0.041681 -0.893804
v -0.123895 0.037885 -0.564357
v -0.400804 0.094261 0.657150
v -0.246689 0.096739 -0.648732
v 0.460005 0.096765 0.859803
v 0.356510 0.052553 -0.895288
v 0.167098 0.060073 0.400769
v -0.499586 0.051141 0.851731
v -0.499800 -0.002800 -0.937526
v -0.249328 -0.001685 0.914851
v 0.430093 0.096818 0.662629
v -0.449430 0.056746 -0.981215
v 0.004468 0.025834 -0.589141
v -0.114559 0.096855 -0.668012
v 0.437486 0.036439 -0.810441
v -0.249098 0.064996 0.614363
v -0.353109 -0.002588 -0.468713
v 0.396641 0.094784 0.981598
v -0.325424 0.096469 -0.892648
v -0.470097 0.096719 0.835236
v -0.327918 0.040573 -0.475209
v -0.090806 0.096808 -0.878891
v 0.359980 0.074454 0.385907
v 0.473895 -0.002812 -0.660198
v -0.377521 0.064751 0.618456
v 0.259355 0.061630 1.002112
v 0.495035 0.032536 0.433618
v -0.402109 0.075297 -0.981385
v 0.125895 0.096808 0.912053
v -0.251967 0.017798 -0.483143
v -0.500132 -0.002767 0.859570
v 0.427774 0.022042 -0.638056
v 0.460687 0.069969 0.935313
vt 0.859655 0.766278
vt 0.491176 0.548604
vt 0.529834 0.744872
vt 0.607596 0.330833
vt 0.608569 0.415796
vt 0.573853 0.373086
vt 0.085938 0.361123
vt 0.053619 0.469594
vt 0.360079 0.932108
vt 0.356203 0.716198
vt 0.087258 0.696791
vt 0.327756 0.688218
vt 0.943502 0.380050
vt 0.623504 0.966226
vt 0.993157 0.564978
vt 0.617508 0.645624
vt 0.854910 0.208278
vt 0.869229 0.393929
vt 0.720441 0.669376
vt 0.847643 0.692009
vt 0.904768 0.402589
vt 0.900789 0.202708
vt 0.697772 0.050359
vt 0.634082 0.204451
vt 0.802970 0.913037
vt 0.391154 0.560905
vt 0.211056 0.930422
vt 0.165270 0.526717
vt 0.271400 0.617528
vt 0.097525 0.683860
vt 0.916700 0.641430
vt 0.184176 0.386262
vt 0.322056 0.231861
vt 0.308713 0.425692
vt 0.094009 0.449526
vt 0.123549 0.576786
vt 0.056734 0.540934
vt 0.105005 0.361745
vt 0.782141 0.094780
vt 0.854991 0.057766
vt 0.718985 0.244467
vt 0.214113 0.044062
vt 0.275734 0.090424
vt 0.224126 0.137178
vt 0.216727 0.168001
vt 0.343168 0.200856
vt 0.375609 0.300818
vt 0.691581 0.134719
vt 0.722148 0.124086
vt 0.372893 0.110752
vt 0.058523 0.819612
vt 0.535284 0.626838
vt 0.544893 0.501287
vt 0.114393 0.159146
vt 0.603378 0.683829
vt 0.569112 0.724874
vt 0.361653 0.410438
vt 0.833258 0.088312
vt 0.807761 0.829732
vt 0.908109 0.688694
vt 0.056431 0.588825
vt 0.325628 0.760550
vt 0.882260 0.470970
vt 0.925539 0.582451
vt 0.948384 0.559818
vt 0.169381 0.086921
vt 0.065053 0.494453
vt 0.064578 0.461005
vt 0.875302 0.739347
vt 0.172639 0.442757
vt 0.102211 0.382309
vt 0.375990 0.623419
vt 0.320906 0.572706
vt 0.927970 0.218877
vt 0.384063 0.655179
vt 0.336171 0.140345
vt 0.676902 0.221060
vt 0.177397 0.047927
vt 0.056763 0.836342
vt 0.031646 0.607877
vt 0.263291 0.781869
vt 0.426505 0.663333
vt 0.371398 0.912087
vt 0.084960 0.895731
vt 0.112741 0.799483
vt 0.368684 0.783694
vt 0.211517 0.799880
vt 0.419278 0.367649
vt 0.720693 0.805269
vt 0.860612 0.022668
vt 0.668996 0.043370
vt 0.633353 0.797456
vt 0.537718 0.378471
vt 0.714939 0.911113
vt 0.533403 0.985677
vt 0.540496 0.763481
vt 0.456746 0.801252
vt 0.446491 0.979509
vt 0.889788 0.050514
vt 0.912408 0.724910
vt 0.942179 0.744612
vt 0.474932 0.713042
vt 0.697613 0.020689
vt 0.401510 0.695327
vt 0.344991 0.093919
vt 0.094526 0.700154
vn 0.000259 -1.000000 -0.000009
vn 0.000114 -1.000000 -0.000002
vn 0.000211 -1.000000 0.000014
vn -0.467947 0.546685 -0.694378
vn -0.054640 0.986685 -0.153188
vn -0.391883 0.479246 -0.785335
vn 0.002244 -0.999997 0.000169
vn -0.000261 -1.000000 0.000315
vn -0.000084 -1.000000 0.000254
vn -0.973836 0.117139 -0.194736
vn -0.813927 0.494272 0.305316
vn -0.799805 0.600242 0.004556
vn 0.000001 -1.000000 0.000075
vn -0.000003 -1.000000 -0.000029
vn 0.000165 -1.000000 -0.000027
vn 0.001769 0.997605 -0.069151
vn -0.026636 0.982799 0.182747
vn -0.004565 0.998244 0.059069
vn 0.053846 -0.138213 0.988938
vn -0.173324 0.296501 0.939173
vn -0.142402 -0.011343 0.989744
vn -0.152076 0.301511 0.941256
vn -0.679416 0.420492 -0.601316
vn -0.342822 0.031926 -0.938858
vn -0.689062 0.043699 -0.723384
vn 0.026197 0.546267 -0.837201
vn 0.069367 0.284425 -0.956186
vn -0.277341 0.292715 -0.915095
vn -0.054456 0.970595 0.234476
vn -0.307901 0.947354 0.087846
vn -0.409879 0.884514 0.222788
vn 0.982334 -0.025115 0.185444
vn 0.450032 0.168072 0.877053
vn 0.037722 0.972751 0.228764
vn 0.034084 0.993081 -0.112378
vn -0.001587 0.993001 -0.118099
vn 0.098251 0.851955 0.514314
vn -0.046326 0.940290 0.337207
vn 0.254339 0.677143 0.690499
vn 0.000559 -1.000000 0.000702
vn 0.133290 0.761902 0.633829
vn 0.084497 0.763842 0.639848
vn 0.063647 0.956441 0.284903
vn -0.332532 0.941873 -0.047931
vn -0.730316 0.328358 0.599016
vn -0.016718 0.998827 -0.045452
vn 0.695894 0.718143 0.001183
vn 0.748577 0.603211 -0.275262
vn 0.330166 0.930649 0.157742
vn -0.358730 0.125241 -0.925002
vn 0.321607 0.513306 -0.795667
vn 0.155445 0.373474 -0.914524
vn -0.045185 0.386562 -0.921156
vn -0.121044 0.958449 -0.258312
vn 0.000154 -1.000000 -0.000202
vn -0.003946 -0.999977 0.005570
vn 0.570327 0.153223 -0.807001
vn 0.008167 0.834685 -0.550667
vn -0.100223 0.212516 -0.972004
vn -0.092383 0.867238 -0.489248
vn -0.001652 -0.999984 0.005434
vn 0.083139 0.784037 0.615122
vn 0.798832 0.378077 -0.467895
vn -0.001094 0.906857 -0.421437
vn 0.726313 0.682276 -0.083482
vn 0.929066 0.358722 -0.090306
vn -0.184073 0.936068 0.299822
vn -0.000100 -1.000000 -0.000036
vn -0.000161 -1.000000 0.000269
vn 0.668930 0.399092 0.627103
vn 0.294429 0.955673 -0.001142
vn 0.009738 0.999952 -0.001388
vn -0.086304 0.870733 0.484123
vn 0.002110 -0.999998 -0.000209
vn 0.001284 -0.999999 -0.000042
vn 0.008388 -0.999963 -0.002173
vn -0.083674 0.976534 0.198447
vn -0.019281 0.982355 0.186030
vn -0.185116 0.209965 0.960025
vn 0.293789 0.692264 0.659134
vn 0.623296 0.743208 0.243195
vn 0.112224 -0.192257 0.974907
vn 0.412003 0.260932 0.873023
vn 0.372966 0.012627 0.927759
vn 0.262651 -0.622907 0.736887
vn -0.304833 0.252736 0.918260
vn 0.927714 0.371415 0.037376
vn 0.043253 0.968604 0.244819
vn -0.181451 0.924734 -0.334579
vn -0.014738 0.991226 -0.131352
vn -0.093689 0.047170 0.994484
vn -0.378647 0.588971 -0.713960
vn 0.448022 0.791512 -0.415675
vn -0.000138 -1.000000 -0.000037
vn -0.726595 0.106075 0.678828
vn -0.256298 0.566411 -0.783256
vn 0.000688 -1.000000 -0.000393
vn -0.006125 -0.998860 0.047346
s 1
g Flooring_01_broken_05
usemtl initialShadingGroup
f 8/97/1 2/95/2 3/98/3
s 2
f 18/4/4 29/5/5 40/6/6
s 3
f 20/87/7 32/81/8 6/9/9
s 4
f 53/10/10 38/106/11 45/12/12
s 1
f 7/92/13 16/14/14 11/96/15
s 2
f 21/16/16 41/17/17 1/18/18
f 11/15/19 37/21/20 7/13/21
f 37/21/20 41/17/17 44/22/22
f 14/23/23 33/24/24 23/91/25
s 4
f 10/26/26 5/88/27 6/82/28
f 48/28/29 42/29/30 4/30/31
s 2
f 8/101/32 62/31/33 11/15/19
s 1
f 2/95/2 8/97/1 11/96/15
s 4
f 12/32/34 17/33/35 66/34/36
f 46/35/37 35/36/38 74/37/39
s 3
f 6/9/9 5/27/40 20/87/7
s 4
f 12/32/34 30/71/41 57/38/42 39/45/43
s 2
f 9/39/44 14/23/23 52/40/45
f 31/41/46 41/17/17 21/16/16
s 4
f 13/42/47 59/43/48 15/44/49
f 17/33/35 12/32/34 39/45/43
s 1
f 16/14/14 2/95/2 11/96/15
s 2
f 18/4/4 40/6/6 16/93/50
s 4
f 15/44/49 19/46/51 17/33/35
f 10/26/26 24/47/52 5/88/27
s 2
f 14/23/23 69/48/53 33/24/24
f 31/41/46 47/49/54 9/39/44
s 3
f 36/84/55 68/51/56 5/27/40
s 4
f 24/47/52 36/50/57 5/88/27
s 2
f 67/52/58 2/2/59 51/53/60
f 16/93/50 40/6/6 2/2/59
s 3
f 20/87/7 5/27/40 28/85/61
s 4
f 57/38/42 28/54/62 39/45/43
s 2
f 2/2/59 67/52/58 3/102/63
s 4
f 10/26/26 22/57/64 24/47/52
f 45/12/12 4/30/31 42/29/30
s 2
f 67/52/58 34/55/65 71/56/66
f 31/41/46 21/16/16 29/5/5
f 52/40/45 44/22/22 64/58/67
s 1
f 33/94/68 7/92/13 75/59/69
s 4
f 24/47/52 22/57/64 17/33/35
f 24/47/52 17/33/35 19/46/51
s 2
f 77/60/70 62/31/33 8/101/32
f 21/16/16 1/18/18 49/20/71 55/19/72
s 4
f 35/36/38 4/30/31 65/61/73
s 3
f 53/83/74 61/62/75 38/86/76
s 2
f 49/20/71 73/63/77 27/64/78
f 70/65/79 37/21/20 11/15/19
s 3
f 5/27/40 68/51/56 28/85/61
s 4
f 15/44/49 76/66/80 68/78/81
f 57/38/42 20/7/82 28/54/62
f 46/35/37 26/67/83 43/68/84
s 2
f 18/4/4 31/41/46 29/5/5
f 47/49/54 31/41/46 69/48/53
s 4
f 32/8/85 43/68/84 26/67/83
f 61/80/86 65/61/73 38/11/11
s 2
f 25/69/87 71/56/66 34/55/65 49/20/71
s 4
f 12/32/34 58/70/88 30/71/41
f 66/34/36 58/70/88 12/32/34
s 2
f 33/24/24 18/4/4 16/93/50
s 1
f 33/94/68 16/14/14 7/92/13
s 2
f 21/16/16 34/55/65 67/52/58
s 4
f 48/28/29 4/30/31 35/36/38
f 48/28/29 35/36/38 46/35/37 58/70/88
f 24/47/52 19/46/51 36/50/57
f 36/105/57 59/43/48 13/42/47
s 2
f 1/18/18 41/17/17 37/21/20
f 27/64/78 73/63/77 37/21/20
s 4
f 4/30/31 45/12/12 38/106/11
f 65/61/73 4/30/31 38/11/11
f 15/44/49 17/33/35 39/45/43
f 15/44/49 39/45/43 28/54/62
s 2
f 51/53/60 40/6/6 29/5/5
f 40/6/6 51/53/60 2/2/59
f 44/22/22 41/17/17 64/58/67
f 31/41/46 64/58/67 41/17/17
s 4
f 72/72/89 42/29/30 63/73/90
f 63/73/90 42/29/30 48/28/29
f 43/68/84 32/8/85 20/7/82
f 30/71/41 43/68/84 20/7/82
s 2
f 37/21/20 44/22/22 7/13/21
f 7/13/21 44/22/22 54/74/91
f 67/52/58 51/53/60 29/5/5 21/16/16
s 4
f 45/12/12 56/75/92 53/10/10
f 72/72/89 45/12/12 42/29/30
f 46/35/37 30/71/41 58/70/88
f 46/35/37 43/68/84 30/71/41
s 2
f 14/23/23 9/39/44 47/49/54
f 14/23/23 47/49/54 69/48/53
s 4
f 48/28/29 58/70/88 66/34/36
s 2
f 49/20/71 62/31/33 77/60/70
s 4
f 36/50/57 19/46/51 50/76/93
f 50/76/93 19/46/51 15/44/49
s 2
f 52/40/45 14/23/23 23/103/25
s 1
f 23/25/94 33/94/68 75/59/69
s 4
f 56/75/92 6/104/28 53/10/10
s 3
f 6/9/9 61/62/75 53/83/74
s 2
f 44/22/22 52/40/45 54/74/91
f 52/40/45 23/103/25 75/90/95
f 34/55/65 21/16/16 55/19/72
s 4
f 6/82/28 56/75/92 10/26/26
f 10/26/26 72/72/89 63/73/90
f 30/71/41 20/7/82 57/38/42
f 50/76/93 59/43/48 36/105/57
f 50/76/93 15/44/49 59/43/48
s 2
f 31/41/46 18/4/4 60/77/96
f 33/24/24 60/77/96 18/4/4
s 4
f 74/37/39 61/80/86 32/8/85
s 3
f 61/62/75 6/9/9 32/81/8
s 2
f 62/31/33 49/20/71 27/64/78
f 62/31/33 70/65/79 11/15/19
s 4
f 22/57/64 10/26/26 63/73/90
f 66/34/36 63/73/90 48/28/29
s 2
f 9/39/44 52/40/45 64/58/67
f 31/41/46 9/39/44 64/58/67
s 4
f 35/36/38 65/61/73 74/37/39
f 61/80/86 74/37/39 65/61/73
f 22/57/64 66/34/36 17/33/35
f 66/34/36 22/57/64 63/73/90
f 13/42/47 15/44/49 68/78/81
s 3
f 68/51/56 36/84/55 13/79/97
s 2
f 69/48/53 60/77/96 33/24/24
f 31/41/46 60/77/96 69/48/53
f 70/65/79 27/64/78 37/21/20
f 62/31/33 27/64/78 70/65/79
f 71/56/66 3/3/63 67/52/58
s 4
f 56/75/92 72/72/89 10/26/26
f 45/12/12 72/72/89 56/75/92
s 2
f 49/20/71 1/18/18 73/63/77
f 73/63/77 1/18/18 37/21/20
s 4
f 74/37/39 32/8/85 26/67/83
f 46/35/37 74/37/39 26/67/83
s 1
f 75/59/69 7/92/13 54/89/98
s 2
f 52/40/45 75/99/95 54/74/91
s 4
f 15/44/49 28/54/62 76/66/80
f 76/66/80 28/54/62 68/78/81
s 2
f 77/60/70 25/100/87 49/20/71
f 77/60/70 8/101/32 25/100/87
f 25/69/87 8/1/32 3/3/63 71/56/66
f 49/20/71 34/55/65 55/19/72
